<svg width="16" height="16" viewBox="0 0 16 16" fill="none" xmlns="http://www.w3.org/2000/svg">
<path d="M7 2C7.55228 2 8 1.55228 8 1C8 0.447715 7.55228 0 7 0V2ZM16 8.25C16 7.69772 15.5523 7.25 15 7.25C14.4477 7.25 14 7.69772 14 8.25H16ZM15 1H16C16 0.447715 15.5523 0 15 0V1ZM11 0C10.4477 0 10 0.447715 10 1C10 1.55228 10.4477 2 11 2V0ZM14 5C14 5.55228 14.4477 6 15 6C15.5523 6 16 5.55228 16 5H14ZM4.29289 10.2929C3.90237 10.6834 3.90237 11.3166 4.29289 11.7071C4.68342 12.0976 5.31658 12.0976 5.70711 11.7071L4.29289 10.2929ZM13 14H3V16H13V14ZM2 13V3H0V13H2ZM3 2H7V0H3V2ZM14 8.25V13H16V8.25H14ZM3 14C2.44772 14 2 13.5523 2 13H0C0 14.6569 1.34315 16 3 16V14ZM13 16C14.6569 16 16 14.6569 16 13H14C14 13.5523 13.5523 14 13 14V16ZM2 3C2 2.44772 2.44772 2 3 2V0C1.34315 0 0 1.34315 0 3H2ZM15 0H11V2H15V0ZM14 1V5H16V1H14ZM5.70711 11.7071L15.7071 1.70711L14.2929 0.292893L4.29289 10.2929L5.70711 11.7071Z" fill="#2E9BFF"/>
</svg>
