<svg width="16" height="16" viewBox="0 0 16 16" fill="none" xmlns="http://www.w3.org/2000/svg">
<path d="M14.7218 11.565C14.6096 11.6837 14.4898 11.7949 14.3632 11.8981C14.1735 12.0406 13.9346 11.9775 13.5761 11.9775C13.309 11.9932 13.309 12.128 12.9226 12.0725C12.5936 11.9855 12.2961 11.8068 12.0649 11.5571C11.8827 11.3906 11.7559 11.1761 11.6786 10.9381C11.6153 10.6248 11.6298 10.3007 11.7209 9.99425C11.8892 9.32738 12.4867 8.85988 13.1615 8.8835L13.1405 8.86775C13.4919 8.85988 13.8363 8.95488 14.1454 9.12938C14.4633 9.39266 14.6876 9.75168 14.7847 10.1529C14.9466 10.97 14.8693 11.4456 14.7218 11.565ZM13.1973 8.52713C13.0165 8.94775 12.8559 8.85962 12.5345 8.85962C12.0794 8.85962 11.6977 8.69713 11.671 8.35C11.6376 7.99563 11.5641 7.55312 11.892 7.494C12.0595 7.405 12.2265 7.3315 12.3939 7.26475C12.5353 7.24355 12.6798 7.27237 12.8022 7.34625C12.9243 7.4268 13.0255 7.53503 13.0977 7.66213C13.1698 7.78907 13.2108 7.93129 13.2172 8.07712C13.1972 8.195 13.331 8.328 13.1973 8.52713ZM10.6663 10.4184C10.6131 10.4407 10.5578 10.4574 10.5013 10.4683C10.429 10.4795 10.352 10.4795 10.2799 10.4683C10.2024 10.4515 10.2076 10.457 10.1664 10.4292C10.1288 10.3996 10.0988 10.3615 10.0787 10.318C10.0573 10.2802 10.0433 10.2387 10.0375 10.1956C10.0169 10.0835 10.0169 9.96852 10.0375 9.85637C10.0548 9.81037 10.084 9.76974 10.122 9.73854C10.16 9.70734 10.2055 9.68668 10.254 9.67863L10.2644 9.67313C10.352 9.66725 10.4345 9.684 10.5166 9.71187C10.5941 9.73975 10.6044 9.78975 10.6456 9.82875C10.6869 9.87313 10.6869 9.89 10.7126 9.91763C10.7384 9.94538 10.7847 9.96762 10.8054 10.0234C10.8313 10.1012 10.8364 10.1844 10.826 10.2627C10.8163 10.3009 10.7962 10.3356 10.768 10.363C10.7398 10.3905 10.7046 10.4096 10.6663 10.4184ZM10.6625 6.54725C10.2373 6.65475 10.2037 7.2775 9.71225 7.25725C9.44244 7.24124 9.17626 7.18712 8.92163 7.0965C8.51638 6.90912 8.63638 6.41363 8.43013 6.1055C8.35688 5.86425 8.44313 5.60337 8.65588 5.44263C8.78212 5.20837 8.97463 5.00738 9.20088 4.85337C9.45963 4.78638 9.56612 5.09462 9.8185 5.05412C10.0179 5.05412 10.2039 5.12112 10.3435 5.24837L10.4166 5.28188C10.7089 5.4895 10.4696 5.91125 10.7354 6.14575C10.8281 6.286 10.9213 6.50075 10.6624 6.54725H10.6625ZM7.84462 4.83975C7.63425 4.87725 7.416 4.666 7.50338 4.3185C7.51538 4.24225 7.51362 4.15575 7.52537 4.07475L5.97813 2.42975L7.58962 3.91225C7.62575 3.86675 7.679 3.83013 7.76487 3.81238C7.90275 3.78988 8.50612 4.03912 8.3895 4.31862C8.28087 4.55275 8.0845 4.734 7.84462 4.83975ZM6.677 4.84412L3.5515 1.625L6.787 4.49775C6.74575 4.6085 6.7045 4.72625 6.677 4.84387V4.84412ZM7.59575 8.05538L7.58887 8.063L1.93387 1.625L6.96637 6.57562C7.03759 7.11673 7.25512 7.62814 7.5955 8.05475L7.59575 8.0555V8.05538ZM1.125 14.4998V3.23438L13.2574 14.5H1.125V14.4996V14.4998ZM1.93375 7.25775L3.28038 7.04738L4.36037 7.25775L1.9335 4.84325V7.25775H1.93387H1.93375Z" fill="#0B33C4"/>
</svg>
