<svg width="16" height="16" viewBox="0 0 16 16" fill="none" xmlns="http://www.w3.org/2000/svg">
<path d="M13.6353 4.62062L13.7852 4V4.00725H15L14.4001 13.5H1.59987L1 4.00725H2.63475L2.78475 4.47475L2.48475 4.57688H2.28225L2.73225 5.402L2.93475 5.45312L3.38462 5.75975L3.33212 6.0665L3.42963 6.73825L3.932 7.4685L4.082 7.77513L5.61163 8.447L5.91162 10.09L6.51162 9.849L6.95388 10.0752L7.05137 10.6376L9.331 9.6445L10.3359 9.87075L11.1383 8.3885V8.133L11.4382 8.23525L12.308 6.62875L13.2828 6.32212L13.4327 5.59912H13.3352V4.82513L13.6353 4.62062Z" fill="#0C8B4E"/>
</svg>
