<svg width="16" height="16" viewBox="0 0 16 16" fill="none" xmlns="http://www.w3.org/2000/svg">
<path d="M15.1812 13.8571C15.2664 14.003 15.3515 14.1485 15.4284 14.3013C15.4348 14.3143 15.443 14.3284 15.4515 14.3431C15.5029 14.4319 15.5667 14.5419 15.331 14.5451H0.755295C0.712306 14.5636 0.664441 14.5675 0.619045 14.5561C0.57291 14.5444 0.531679 14.5184 0.501295 14.4818C0.496974 14.4317 0.503497 14.3812 0.52042 14.3339C0.536946 14.2873 0.563682 14.245 0.59867 14.2101C0.89742 13.5746 1.23529 12.9164 1.54742 12.3085L1.57617 12.2523C1.71967 11.9729 1.86442 11.695 2.00917 11.4174C2.18729 11.0756 2.36517 10.7343 2.53979 10.3911C3.15492 9.19614 3.76479 7.99614 4.37417 6.79664C4.68167 6.19164 4.98879 5.58701 5.29667 4.98301L5.67217 4.25351C6.12919 3.36766 6.58382 2.48057 7.03604 1.59226C7.15954 1.35214 7.24304 1.41914 7.33354 1.60526C7.42242 1.74554 7.47852 1.90406 7.49767 2.06901C7.5173 2.23503 7.49979 2.40334 7.44642 2.56176C7.43892 2.75989 7.45067 2.95814 7.48142 3.15364C7.38208 3.43987 7.32974 3.7403 7.32642 4.04326C7.34729 4.73489 7.54979 5.40639 7.91092 5.98051C8.03861 6.15306 8.10476 6.36344 8.09879 6.57801C8.0874 6.75422 8.11639 6.93071 8.18354 7.09401C8.249 7.25406 8.35173 7.39616 8.48317 7.50851C8.53904 7.56526 8.58167 7.63514 8.60767 7.71276C8.63367 7.79026 8.64217 7.87339 8.63267 7.95514C8.63441 8.1493 8.62225 8.34334 8.59629 8.53576C8.57704 8.81701 8.58579 9.09951 8.62229 9.37889C8.71394 9.97239 8.83939 10.5602 8.99804 11.1394C9.12901 11.7507 9.18738 12.3754 9.17192 13.0004C9.16154 13.2535 9.22942 13.3316 9.46417 13.3316H14.6648C14.7304 13.3232 14.797 13.3366 14.8542 13.3698C14.9122 13.4031 14.959 13.4548 14.9883 13.5178C15.0502 13.6333 15.1157 13.7453 15.1812 13.8571Z" fill="#638404"/>
<path d="M9.5023 7.25874C9.23042 6.93058 9.00826 6.56425 8.84292 6.17149C8.82462 6.13927 8.81286 6.10376 8.8083 6.067C8.80373 6.03023 8.80647 5.99292 8.81633 5.95721C8.8262 5.9215 8.84301 5.88809 8.86581 5.85888C8.8886 5.82967 8.91693 5.80524 8.94917 5.78699C9.21391 5.57462 9.54569 5.4636 9.88492 5.47386C10.2268 5.76924 10.4994 6.13626 10.6834 6.54886C10.5174 6.88022 10.2447 7.14614 9.9093 7.30386C9.84907 7.35117 9.77269 7.37294 9.69657 7.3645C9.62046 7.35606 9.5507 7.31809 9.5023 7.25874ZM13.0997 11.1954C13.0997 11.4285 12.9709 11.4546 12.8092 11.3816C12.7398 11.3494 12.642 11.3196 12.5354 11.2872C12.2385 11.197 11.8735 11.086 11.8645 10.844C11.8493 10.6596 11.8748 10.4742 11.9391 10.3007C12.0035 10.1273 12.1051 9.97007 12.2369 9.84024C12.4108 9.80899 12.5848 9.76899 12.7588 9.72024C12.8858 9.60549 13.0632 10.0229 13.0788 10.1081C13.0959 10.2449 13.1018 10.3815 13.1078 10.5191C13.1109 10.5916 13.114 10.6646 13.1188 10.7379H13.0997V11.1954ZM8.08117 4.37424C8.01167 4.30736 7.94217 4.24049 7.88092 4.16924V4.16574C7.84514 4.13756 7.81622 4.10163 7.79633 4.06065C7.77645 4.01968 7.76611 3.97472 7.76611 3.92918C7.76611 3.88363 7.77645 3.83868 7.79633 3.7977C7.81622 3.75673 7.84514 3.7208 7.88092 3.69261C8.02907 3.56804 8.20273 3.47746 8.38968 3.42727C8.57662 3.37708 8.7723 3.36849 8.96292 3.40211C9.03642 3.48111 9.10992 3.60711 9.18492 3.73561C9.27155 3.88424 9.3603 4.03636 9.45355 4.12399C9.41302 4.23984 9.35428 4.3485 9.27955 4.44586C9.11132 4.61771 8.89781 4.73834 8.6638 4.79374C8.63604 4.80624 8.6061 4.81314 8.57567 4.81405C8.54525 4.81496 8.51494 4.80986 8.4865 4.79904C8.45805 4.78822 8.43201 4.77189 8.40988 4.75099C8.38776 4.73009 8.36997 4.70502 8.35755 4.67724C8.28155 4.56724 8.1813 4.47074 8.08117 4.37424ZM10.1813 8.77086C10.1904 8.65461 10.198 8.55611 10.198 8.49736C10.2249 8.06599 10.416 7.66132 10.7322 7.36661C10.9285 7.43928 11.1074 7.5524 11.2572 7.69863C11.4071 7.84487 11.5245 8.02096 11.6019 8.21549C11.2778 8.81601 10.8238 9.33662 10.2729 9.73936C10.1058 9.73936 10.1513 9.15624 10.1813 8.77086Z" fill="#638404"/>
</svg>
