<svg width="20" height="20" viewBox="0 0 20 20" fill="none" xmlns="http://www.w3.org/2000/svg">
<g clip-path="url(#clip0_35_984)">
<path d="M10.0351 5.77621C7.72693 5.77621 5.85229 7.65475 5.85229 9.95899C5.85229 12.2671 7.73083 14.1418 10.0351 14.1418C12.3393 14.1418 14.2178 12.271 14.2178 9.9629C14.2178 7.65475 12.3393 5.77621 10.0351 5.77621ZM10.0351 12.9506C8.38696 12.9506 7.04737 11.611 7.04737 9.9629C7.04737 8.31478 8.38696 6.9752 10.0351 6.9752C11.6832 6.9752 13.0228 8.31478 13.0228 9.9629C13.0228 11.611 11.6832 12.9506 10.0351 12.9506Z" fill="black" fill-opacity="0.65"/>
<path d="M19.3617 9.38489H17.8503C17.7097 7.49854 16.9091 5.74497 15.5578 4.39367C14.2065 3.04237 12.4529 2.24175 10.5665 2.10115V0.59754C10.5665 0.269479 10.2971 0 9.969 0C9.64094 0 9.37146 0.269479 9.37146 0.59754V2.10115C7.48902 2.24175 5.73155 3.04237 4.38025 4.39367C3.02895 5.74497 2.22833 7.49463 2.08773 9.38489H0.599737C0.271676 9.38489 0.00219727 9.65436 0.00219727 9.98243C0.00219727 10.3105 0.271676 10.58 0.599737 10.58H2.08773C2.22833 12.4663 3.02895 14.2199 4.38025 15.5712C5.73155 16.9225 7.48511 17.7231 9.37146 17.8637V19.4025C9.37146 19.7305 9.64094 20 9.969 20C10.2971 20 10.5665 19.7305 10.5665 19.4025V17.8637C12.449 17.7231 14.2065 16.9225 15.5578 15.5712C16.9091 14.2199 17.7097 12.4663 17.8503 10.58H19.3617C19.6898 10.58 19.9592 10.3105 19.9592 9.98243C19.9592 9.65046 19.6898 9.38489 19.3617 9.38489ZM14.7103 14.7237C13.4449 15.9891 11.7577 16.6881 9.969 16.6881C8.17638 16.6881 6.49312 15.9891 5.22774 14.7237C3.96236 13.4583 3.26328 11.7711 3.26328 9.98243C3.26328 8.19371 3.96236 6.50654 5.22774 5.24116C6.49312 3.97579 8.18029 3.2767 9.969 3.2767C11.7616 3.2767 13.4449 3.97579 14.7103 5.24116C15.9756 6.50654 16.6747 8.19371 16.6747 9.98243C16.6747 11.7711 15.9795 13.4583 14.7103 14.7237Z" fill="black" fill-opacity="0.65"/>
</g>
<defs>
<clipPath id="clip0_35_984">
<rect width="20" height="20" fill="white"/>
</clipPath>
</defs>
</svg>
