<svg width="20" height="20" viewBox="0 0 20 20" fill="none" xmlns="http://www.w3.org/2000/svg">
<path d="M3.9668 11.7051C3.01172 11.7051 2.23633 10.9316 2.23633 9.97656C2.23633 9.02148 3.00977 8.24805 3.9668 8.24805C4.92188 8.24805 5.69727 9.02148 5.69727 9.97656C5.69531 10.9316 4.92188 11.7051 3.9668 11.7051ZM10.0195 11.7051C9.06445 11.7051 8.28906 10.9316 8.28906 9.97656C8.28906 9.02148 9.0625 8.24805 10.0195 8.24805C10.9746 8.24805 11.75 9.02148 11.75 9.97656C11.75 10.9316 10.9746 11.7051 10.0195 11.7051ZM16.0723 11.7051C15.1172 11.7051 14.3418 10.9316 14.3418 9.97656C14.3418 9.02148 15.1152 8.24805 16.0723 8.24805C17.0273 8.24805 17.8027 9.02148 17.8027 9.97656C17.8027 10.9316 17.0293 11.7051 16.0723 11.7051Z" fill="black" fill-opacity="0.65"/>
</svg>
