<svg width="14" height="16" viewBox="0 0 14 16" fill="none" xmlns="http://www.w3.org/2000/svg">
<path d="M8.05481 9.57731V9.54122H7.68272V8.97422H11.067V7.69716H7.68338V6.80072H11.0677V5.52366H7.68338V4.59637H11.0677V3.31931H7.68338V2.72475C10.7737 2.61319 13.125 2.05078 13.125 1.37287C13.125 0.613594 10.187 0 6.5625 0C2.93869 0 0 0.614906 0 1.37287C0 2.04422 2.30803 2.60334 5.35566 2.72147V3.31997H1.97137V4.59637H5.35566V5.52366H1.97137V6.80072H5.35566V7.69781H1.97137V8.97422H5.35566V9.54188H4.93828V9.58453C2.09934 9.73547 0 10.2736 0 10.9134C0 11.5546 2.1 12.0921 4.93828 12.243V15.75H8.05547V12.2509C10.96 12.1091 13.1243 11.5644 13.1243 10.9141C13.125 10.2638 10.9607 9.71906 8.05547 9.57731H8.05481Z" fill="#999999"/>
</svg>
