<svg width="20" height="20" viewBox="0 0 20 20" fill="none" xmlns="http://www.w3.org/2000/svg">
<path d="M17.5 2.5V8.125C17.5 8.5 17.25 8.75 16.875 8.75C16.5 8.75 16.25 8.5 16.25 8.125V4.625L12.375 8.625C12.25 8.75 12 8.75 11.875 8.75C11.75 8.75 11.5 8.75 11.375 8.625C11.25 8.375 11.25 7.875 11.375 7.625L15.375 3.75H11.875C11.5 3.75 11.25 3.5 11.25 3.125C11.25 2.75 11.5 2.5 11.875 2.5H17.5ZM8.625 11.375C8.375 11.25 7.875 11.125 7.625 11.375L3.75 15.375V11.875C3.75 11.5 3.5 11.25 3.125 11.25C2.75 11.25 2.5 11.5 2.5 11.875V17.5H8.125C8.5 17.5 8.75 17.25 8.75 16.875C8.75 16.5 8.5 16.25 8.125 16.25H4.625L8.625 12.375C8.75 12.125 8.75 11.625 8.625 11.375ZM8.75 3.125C8.75 2.75 8.5 2.5 8.125 2.5H2.5V8.125C2.5 8.5 2.75 8.75 3.125 8.75C3.5 8.75 3.75 8.5 3.75 8.125V4.625L7.625 8.5C7.75 8.75 8 8.75 8.125 8.75C8.25 8.75 8.5 8.75 8.625 8.625C8.75 8.375 8.75 7.875 8.625 7.625L4.625 3.75H8.125C8.5 3.75 8.75 3.5 8.75 3.125ZM16.875 11.25C16.5 11.25 16.25 11.5 16.25 11.875V15.375L12.375 11.5C12.125 11.25 11.625 11.25 11.375 11.5C11.25 11.75 11.25 12.125 11.375 12.375L15.25 16.25H11.875C11.5 16.25 11.25 16.5 11.25 16.875C11.25 17.25 11.5 17.5 11.875 17.5H17.5V11.875C17.5 11.5 17.25 11.25 16.875 11.25Z" fill="black" fill-opacity="0.65"/>
</svg>
