<svg width="16" height="16" viewBox="0 0 16 16" fill="none" xmlns="http://www.w3.org/2000/svg">
<path d="M13.6353 4.62063L13.7852 4V4.00725H15L14.4001 13.5H1.59987L1 4.00725H2.63475L2.78475 4.47475L2.48475 4.57688H2.28225L2.73225 5.402L2.93475 5.45312L3.38462 5.75975L3.33212 6.0665L3.42963 6.73825L3.932 7.4685L4.082 7.77513L5.61163 8.447L5.91162 10.09L6.51162 9.849L6.95388 10.0752L7.05137 10.6376L9.331 9.6445L10.3359 9.87075L11.1383 8.3885V8.133L11.4382 8.23525L12.308 6.62875L13.2828 6.32212L13.4327 5.59912H13.3352V4.82513L13.6353 4.62063Z" fill="#BD7D00"/>
<path d="M5.95975 4.76837L4 4.5L4.05312 5.47363L5.2685 6.81512L6.02812 6.23263L5.95975 4.76837ZM7.53212 7.37475L6.83337 7.8885L6.48387 8.55538L6.83337 9L7.53212 8.77775V7.37475ZM10.32 7.75037H9.51475L9.27925 7.89612L9.454 8.48637H10.206L10.4948 8.34075L10.3199 7.75037H10.32ZM9.44637 5.259L9.34013 6.1405L9.93262 6.81512L10.4264 6.88413L11.5732 6.0025L12.5 5.59625L12.1734 4.845L10.6996 4.50763L9.44637 5.25887V5.259Z" fill="#BD7D00"/>
</svg>
