<svg width="16" height="16" viewBox="0 0 16 16" fill="none" xmlns="http://www.w3.org/2000/svg">
<path d="M6.98438 1L8.17537 2.35363L6.07688 3.70712L5.81225 1H6.98438ZM4.90487 3.28175L3.71375 4.616L2.52275 3.28175C2.36332 2.84462 2.36332 2.36525 2.52275 1.92813C2.82525 1.34813 4.90475 3.28187 4.90475 3.28187L4.90487 3.28175ZM0.5 10.2817L9.38525 3.86188L6.07688 8.75412L3.43025 11.0359V12.8149L2.882 14.1491L1.691 15H0.5V10.2817ZM12.221 2.779C13.2448 5.29866 13.8821 7.95849 14.1115 10.6685C14.1313 11.8331 14.4363 12.9752 15 13.9945H4.33763L5.73663 10.8619L9.29075 9.5275V6.82037L11.6538 5.46688L11.03 2.779H12.221Z" fill="#BA0086"/>
</svg>
