<svg width="16" height="16" viewBox="0 0 16 16" fill="none" xmlns="http://www.w3.org/2000/svg">
<path d="M6.28646 5.33711C6.25412 5.3709 6.21537 5.3979 6.17246 5.41651C6.12955 5.43512 6.08336 5.44497 6.03659 5.44549C5.98983 5.44601 5.94343 5.43719 5.90012 5.41954C5.8568 5.40189 5.81746 5.37576 5.78438 5.3427C5.7513 5.30964 5.72515 5.2703 5.70748 5.227C5.68981 5.1837 5.68096 5.1373 5.68145 5.09053C5.68195 5.04377 5.69178 4.99757 5.71037 4.95465C5.72896 4.91174 5.75594 4.87296 5.78971 4.84061C5.85603 4.77709 5.94459 4.74206 6.03642 4.74304C6.12825 4.74401 6.21604 4.78091 6.28099 4.84583C6.34595 4.91075 6.38289 4.99853 6.38391 5.09036C6.38493 5.18219 6.34995 5.27076 6.28646 5.33711ZM12.2591 12.1387C12.2216 12.1637 12.1776 12.1772 12.1325 12.1772C12.1027 12.1776 12.0732 12.172 12.0456 12.1609C12.0179 12.1498 11.9928 12.1332 11.9717 12.1123C11.9505 12.0914 11.9337 12.0664 11.9223 12.039C11.9108 12.0115 11.9049 11.982 11.905 11.9522C11.9045 11.9072 11.9175 11.863 11.9422 11.8253C11.9669 11.7876 12.0022 11.7581 12.0437 11.7405C12.0852 11.7229 12.131 11.718 12.1753 11.7265C12.2195 11.735 12.2603 11.7564 12.2923 11.7881C12.3163 11.8118 12.3347 11.8405 12.3462 11.8722C12.3577 11.9039 12.3621 11.9378 12.3589 11.9713C12.3557 12.0049 12.3451 12.0373 12.3278 12.0663C12.3106 12.0952 12.2871 12.12 12.2591 12.1387ZM11.1931 9.50886C11.08 9.58451 10.947 9.62488 10.811 9.62486C10.7208 9.62522 10.6315 9.60778 10.5481 9.57352C10.4647 9.53927 10.3889 9.48889 10.3251 9.42526C10.2612 9.36164 10.2106 9.28603 10.176 9.20277C10.1414 9.11952 10.1237 9.03026 10.1237 8.94011C10.1233 8.80411 10.1632 8.67104 10.2384 8.55773C10.3137 8.44443 10.4208 8.35598 10.5463 8.30358C10.6718 8.25118 10.81 8.23718 10.9435 8.26335C11.077 8.28952 11.1997 8.35469 11.2961 8.45061C11.3681 8.52242 11.4233 8.6093 11.4577 8.70502C11.4921 8.80073 11.5048 8.90288 11.495 9.00411C11.4851 9.10533 11.4529 9.20311 11.4007 9.2904C11.3485 9.37768 11.2776 9.4523 11.1931 9.50886ZM4.68896 3.06536C4.47204 3.20996 4.21169 3.27486 3.95227 3.24901C3.69286 3.22316 3.45044 3.10815 3.26632 2.92359C3.0822 2.73903 2.96778 2.49633 2.94255 2.23685C2.91732 1.97738 2.98284 1.71719 3.12796 1.50061C3.22062 1.36199 3.34289 1.24566 3.48594 1.16C3.62899 1.07434 3.78927 1.02149 3.95522 1.00526C4.12117 0.989031 4.28865 1.00983 4.44559 1.06615C4.60253 1.12247 4.74502 1.21291 4.86278 1.33096C4.98054 1.449 5.07064 1.5917 5.12658 1.74878C5.18253 1.90585 5.20292 2.07338 5.1863 2.23929C5.16967 2.4052 5.11644 2.56535 5.03043 2.7082C4.94443 2.85105 4.8278 2.97303 4.68896 3.06536ZM13.1323 11.094C13.0651 11.1384 12.9862 11.1619 12.9056 11.1615C12.7983 11.1602 12.6958 11.1168 12.6202 11.0407C12.5446 10.9645 12.5019 10.8618 12.5013 10.7545C12.5013 10.6739 12.5252 10.5951 12.57 10.5281C12.6148 10.4612 12.6786 10.409 12.7531 10.3784C12.8466 10.3396 12.9513 10.337 13.0466 10.3713C13.1419 10.4055 13.221 10.4741 13.2684 10.5636C13.3158 10.6531 13.3281 10.757 13.303 10.8551C13.2778 10.9532 13.217 11.0384 13.1323 11.094ZM7.85046 6.70286C7.72638 6.51624 7.67073 6.29242 7.69295 6.06941C7.71517 5.84641 7.81389 5.63797 7.97235 5.47949C8.13081 5.32102 8.33924 5.22228 8.56224 5.20004C8.78525 5.1778 9.00907 5.23343 9.19571 5.35749C9.31533 5.43703 9.41581 5.54215 9.48987 5.66524C9.56393 5.78834 9.60974 5.92634 9.62399 6.06929C9.63823 6.21224 9.62056 6.35657 9.57225 6.49186C9.52394 6.62715 9.44619 6.75003 9.34462 6.85162C9.24305 6.95321 9.12018 7.03098 8.9849 7.07932C8.84962 7.12765 8.70529 7.14535 8.56234 7.13113C8.41939 7.11691 8.28138 7.07113 8.15827 6.99709C8.03516 6.92305 7.93003 6.8226 7.85046 6.70299V6.70286ZM7.09571 4.75899C7.02952 4.81509 6.94608 4.84677 6.85933 4.84874L6.85171 4.86636C6.75858 4.85578 6.67261 4.8113 6.61019 4.74138C6.54777 4.67147 6.51327 4.58102 6.51327 4.4873C6.51327 4.39357 6.54777 4.30313 6.61019 4.23322C6.67261 4.1633 6.75858 4.11881 6.85171 4.10824C6.87858 4.10449 6.90571 4.10449 6.93258 4.10824V4.05524C6.93256 3.94776 6.96441 3.84268 7.02411 3.75331C7.08381 3.66393 7.16867 3.59426 7.26796 3.55312C7.36726 3.51198 7.47652 3.50121 7.58194 3.52217C7.68735 3.54313 7.78418 3.59489 7.86018 3.67089C7.93618 3.74689 7.98794 3.84372 8.0089 3.94914C8.02986 4.05455 8.01909 4.16382 7.97795 4.26311C7.93681 4.3624 7.86714 4.44727 7.77776 4.50696C7.68839 4.56666 7.58331 4.59851 7.47583 4.59849C7.38816 4.59964 7.30149 4.57975 7.22308 4.54049C7.20683 4.62574 7.16196 4.70286 7.09571 4.75899Z" fill="#923A09"/>
<path d="M12.5269 13.232C12.6274 13.0277 12.7589 12.7604 13.1582 12.8797C14.2649 13.2159 14.75 15 14.75 15H1.25V1.49524C2.05488 1.55786 2.06287 1.94299 2.07087 2.33074C2.07912 2.72574 2.0875 3.12336 2.93788 3.18586C4.62313 3.30961 6.0355 6.28161 6.0355 6.28161C6.0355 6.28161 8.93863 7.24949 10.9701 11.2195C12.2686 13.7571 12.3489 13.5937 12.5269 13.232Z" fill="#923A09"/>
</svg>
