<svg width="12" height="18" viewBox="0 0 12 18" fill="none" xmlns="http://www.w3.org/2000/svg">
<path d="M9.82091 1.12348V0H8.72922V1.12569H6.54799V0H5.4563V1.12569H3.27292V0H2.18123V1.12569C0.975644 1.12569 0 2.13394 0 3.37486V15.7508C0 16.994 0.977793 18 2.18123 18H9.81876C11.0244 18 12 16.9918 12 15.7508V3.37486C12.0021 2.13172 11.0244 1.12348 9.82091 1.12348ZM9.27507 13.4994H2.72923C2.42837 13.4994 2.18338 13.2468 2.18338 12.9366C2.18338 12.6264 2.42837 12.3738 2.72923 12.3738H9.27507C9.57593 12.3738 9.82091 12.6264 9.82091 12.9366C9.82091 13.2468 9.57593 13.4994 9.27507 13.4994ZM9.27507 10.1246H2.72923C2.42837 10.1246 2.18338 9.87197 2.18338 9.56174C2.18338 9.25151 2.42837 8.99889 2.72923 8.99889H9.27507C9.57593 8.99889 9.82091 9.25151 9.82091 9.56174C9.82091 9.87197 9.57593 10.1246 9.27507 10.1246ZM9.27507 6.74972H2.72923C2.42837 6.74972 2.18338 6.49711 2.18338 6.18688C2.18338 5.87665 2.42837 5.62403 2.72923 5.62403H9.27507C9.57593 5.62403 9.82091 5.87665 9.82091 6.18688C9.82091 6.49711 9.57593 6.74972 9.27507 6.74972Z" fill="#2E9BFF"/>
</svg>
