<svg width="17" height="20" viewBox="0 0 17 20" fill="none" xmlns="http://www.w3.org/2000/svg">
<path d="M8.5 19.9942C3.80568 19.9942 2.15066e-08 20.2566 0 17.2586C0 14.7912 1.49372 12.6729 4.03471 11.2786C5.28481 10.5924 6.95197 11.8223 8.5 11.8223C10.265 11.8223 12.0771 10.6594 13.4358 11.4758C15.6907 12.8307 17 14.7095 17 17.2586C17 20.2566 13.1943 19.9942 8.5 19.9942ZM8.5 10.8654C5.48894 10.8654 3.04798 8.43305 3.04798 5.43268C3.04798 2.4323 5.48894 0 8.5 0C11.5111 0 13.952 2.4323 13.952 5.43268C13.952 8.43305 11.5111 10.8654 8.5 10.8654Z" fill="black" fill-opacity="0.65"/>
</svg>
