<svg width="48" height="69" viewBox="0 0 48 69" fill="none" xmlns="http://www.w3.org/2000/svg">
<rect width="48" height="48" rx="16" fill="url(#paint0_linear_22_358)"/>
<mask id="mask0_22_358" style="mask-type:alpha" maskUnits="userSpaceOnUse" x="0" y="0" width="48" height="48">
<rect width="48" height="48" rx="16" fill="url(#paint1_linear_22_358)"/>
</mask>
<g mask="url(#mask0_22_358)">
<circle cx="3.5" cy="50.5" r="17.5" fill="white" fill-opacity="0.2"/>
<circle cx="41" cy="4" r="10" fill="white" fill-opacity="0.2"/>
</g>
<path d="M0.234375 62.2129H3.29297V58.8027H0.75V57.877H11.2617V58.8027H8.87109V62.2129H11.7656V63.1387H8.87109V68.4824H7.91016V63.1387H4.24805C4.2207 64.5684 4.01562 65.6309 3.63281 66.3262C3.25 67.0918 2.37109 67.8613 0.996094 68.6348C0.792969 68.3535 0.570312 68.0801 0.328125 67.8145C1.52344 67.2051 2.32031 66.5684 2.71875 65.9043C3.07422 65.3691 3.26367 64.4473 3.28711 63.1387H0.234375V62.2129ZM4.25391 62.2129H7.91016V58.8027H4.25391V62.2129ZM14.7422 61.5684H16.6641V60.5488H17.5312V61.5684H19.957V60.5488H20.8242V61.5684H23.0156V62.3418H20.8242V63.6309H23.5664V64.4043H18.627C18.9824 64.9824 19.416 65.4805 19.9277 65.8984C20.5371 65.6055 21.3281 65.1934 22.3008 64.6621L22.793 65.5176C21.9688 65.8613 21.2598 66.1582 20.666 66.4082C21.541 66.9199 22.5898 67.252 23.8125 67.4043C23.5703 67.7168 23.3516 68.0137 23.1562 68.2949C20.5938 67.7637 18.7793 66.4668 17.7129 64.4043H16.4648V67.3457C16.5664 67.3145 17.3438 67.0684 18.7969 66.6074C18.7812 66.9043 18.7812 67.2168 18.7969 67.5449C18.0859 67.748 17.3789 67.9746 16.6758 68.2246C16.4961 68.2949 16.2148 68.4238 15.832 68.6113L15.3164 67.8965C15.5039 67.7715 15.5977 67.502 15.5977 67.0879V64.4043H14.209C14.1426 66.0059 13.6914 67.4004 12.8555 68.5879C12.6602 68.3223 12.4375 68.0449 12.1875 67.7559C13 66.7012 13.4062 64.9863 13.4062 62.6113V57.5723H22.9688V60.6543H22.0781V60.2559H14.2969V61.8145C14.2969 62.4785 14.2832 63.084 14.2559 63.6309H16.6641V62.3418H14.7422V61.5684ZM22.0781 58.3457H14.2969V59.4824H22.0781V58.3457ZM17.5312 63.6309H19.957V62.3418H17.5312V63.6309ZM29.0977 67.334C31.3086 67.3652 33.5547 67.3457 35.8359 67.2754C35.7031 67.5801 35.5781 67.8887 35.4609 68.2012C33.0234 68.2324 30.8516 68.2324 28.9453 68.2012C27.7188 68.1699 26.793 67.709 26.168 66.8184C25.6992 67.2246 25.207 67.7402 24.6914 68.3652L24.1875 67.3809C24.6406 66.9668 25.1602 66.5137 25.7461 66.0215V62.0254H24.2461V61.1699H26.6836V66.1855C27.2617 66.9121 28.0664 67.2949 29.0977 67.334ZM29.3555 57.4082L30.2812 57.7832C29.5547 59.2676 28.8164 60.6895 28.0664 62.0488C28.7773 63.2988 29.5391 64.6621 30.3516 66.1387L29.4844 66.6309C28.7188 65.0215 27.9258 63.498 27.1055 62.0605C28.0742 60.2715 28.8242 58.7207 29.3555 57.4082ZM31.8047 57.5137L32.7305 57.8887C32.1367 59.1074 31.4102 60.4941 30.5508 62.0488C31.2539 63.2598 32 64.5879 32.7891 66.0332L31.9219 66.5254C31.1328 64.8848 30.3555 63.4004 29.5898 62.0723C30.5352 60.3223 31.2734 58.8027 31.8047 57.5137ZM34.3125 57.5371L35.2383 57.9121C34.6133 59.1699 33.8945 60.5449 33.082 62.0371C33.8242 63.3496 34.5703 64.6738 35.3203 66.0098L34.4531 66.502C33.7969 65.0957 33.0195 63.6074 32.1211 62.0371C33.0898 60.2324 33.8203 58.7324 34.3125 57.5371ZM25.4883 57.1504C25.9727 57.7363 26.5703 58.4902 27.2812 59.4121L26.4375 59.9629C25.7812 58.9941 25.2266 58.2285 24.7734 57.666L25.4883 57.1504ZM36.5742 58.2637H41.5781V57.0098H42.4102V58.2637H47.4844V59.0488H43.1426C44.377 59.9902 45.9375 60.7012 47.8242 61.1816C47.6211 61.4863 47.4414 61.7637 47.2852 62.0137C46.8633 61.8691 46.457 61.7129 46.0664 61.5449V66.6309H45.1758V66.1035H38.8594V66.6426H37.9688V61.6035C37.5703 61.7871 37.1523 61.9629 36.7148 62.1309C36.5508 61.8887 36.3672 61.6387 36.1641 61.3809C38.1797 60.7441 39.7246 59.9668 40.7988 59.0488H36.5742V58.2637ZM36.293 67.2637H47.707V68.1074H36.293V67.2637ZM41.5781 61.252V59.2422C40.6797 60.1094 39.5195 60.877 38.0977 61.5449H46.0605C44.6191 60.9316 43.4023 60.1719 42.4102 59.2656V61.252H41.5781ZM38.8594 65.2949H45.1758V64.2168H38.8594V65.2949ZM45.1758 62.3535H38.8594V63.4199H45.1758V62.3535Z" fill="black" fill-opacity="0.85"/>
<path d="M26.1995 25.9697C26.9272 25.0751 27.3639 23.9153 27.3639 22.6727C27.3639 19.8065 25.0997 17.5035 22.3181 17.5035C19.5364 17.5035 17.2722 19.823 17.2722 22.6727C17.2722 25.5224 19.5364 27.8419 22.3181 27.8419C23.434 27.8419 24.4528 27.4774 25.2938 26.8479L28.9164 30.5591C29.1105 30.7579 29.434 30.7579 29.628 30.5591L29.8059 30.3768C30 30.178 30 29.8467 29.8059 29.6478L26.1995 25.9697ZM24.6469 9.2858C24.841 9.48461 25.0027 9.63373 25.1644 9.7497C27.3639 11.4562 31.3585 12.5663 34.9973 12.8148C35.1267 12.8313 35.3046 12.8313 35.5148 12.8479C35.7898 12.8645 36 13.0964 36 13.3947V24.4621C36 27.0964 34.9488 29.8467 33.2345 31.7354C32.345 32.9946 31.2129 34.1875 30.0323 35.3472C26.8949 38.8265 21.5903 38.8099 18.1779 35.7283C16.8356 34.5188 15.6065 33.094 14.5067 31.4869C12.8895 29.6147 12 27.1461 12 24.5946V13.4112C12 13.113 12.2102 12.881 12.4852 12.8645C12.7278 12.8479 12.938 12.8479 13.0836 12.8313C16.7385 12.5663 20.7332 11.4396 22.9003 9.71656C23.0458 9.60059 23.1914 9.46805 23.3531 9.2858C23.7089 8.90473 24.2749 8.90473 24.6469 9.2858ZM22.3019 26.2845C20.345 26.2845 18.7601 24.6609 18.7601 22.6562C18.7601 20.6514 20.3612 19.0278 22.3019 19.0278C24.2426 19.0278 25.8437 20.6514 25.8437 22.6562C25.8437 24.6609 24.2588 26.2845 22.3019 26.2845Z" fill="white" fill-opacity="0.85"/>
<defs>
<linearGradient id="paint0_linear_22_358" x1="24" y1="48" x2="24" y2="1.78814e-07" gradientUnits="userSpaceOnUse">
<stop stop-color="#FC7104"/>
<stop offset="1" stop-color="#FEC702"/>
</linearGradient>
<linearGradient id="paint1_linear_22_358" x1="24" y1="48" x2="24" y2="1.78814e-07" gradientUnits="userSpaceOnUse">
<stop stop-color="#1F8BD7"/>
<stop offset="1" stop-color="#45EFAD"/>
</linearGradient>
</defs>
</svg>
