<svg width="48" height="69" viewBox="0 0 48 69" fill="none" xmlns="http://www.w3.org/2000/svg">
<rect width="48" height="48" rx="16" fill="url(#paint0_linear_22_328)"/>
<mask id="mask0_22_328" style="mask-type:alpha" maskUnits="userSpaceOnUse" x="0" y="0" width="48" height="48">
<rect width="48" height="48" rx="16" fill="url(#paint1_linear_22_328)"/>
</mask>
<g mask="url(#mask0_22_328)">
<circle cx="3.5" cy="50.5" r="17.5" fill="white" fill-opacity="0.2"/>
<circle cx="41" cy="4" r="10" fill="white" fill-opacity="0.2"/>
</g>
<path d="M7.82812 57.0566L8.76562 57.1973C8.60156 57.9551 8.41016 58.6621 8.19141 59.3184H11.7773V60.1152H11.0391C10.8438 62.4121 10.3438 64.2363 9.53906 65.5879C10.1719 66.4473 10.9766 67.1504 11.9531 67.6973C11.7031 68.041 11.4922 68.3496 11.3203 68.623C10.3672 68.0059 9.57422 67.2715 8.94141 66.4199C8.22266 67.3105 7.36719 68.084 6.375 68.7402C6.20312 68.5137 5.98047 68.2676 5.70703 68.002C6.80078 67.2832 7.6875 66.4668 8.36719 65.5527C7.73438 64.459 7.31641 63.1973 7.11328 61.7676C6.94922 62.0566 6.77734 62.3262 6.59766 62.5762C6.44141 62.3496 6.24609 62.0996 6.01172 61.8262C6.91797 60.5215 7.52344 58.9316 7.82812 57.0566ZM0.28125 63.8184H2.0625C2.23438 63.5215 2.40234 63.2168 2.56641 62.9043L3.41016 63.1738C3.28516 63.3926 3.16016 63.6074 3.03516 63.8184H5.90625V64.5801C5.60938 65.3457 5.16016 66.0176 4.55859 66.5957C4.98828 66.7988 5.42578 67.002 5.87109 67.2051L5.35547 68.0137C4.87109 67.7402 4.36719 67.4668 3.84375 67.1934C2.96094 67.8262 1.84766 68.3262 0.503906 68.6934C0.378906 68.4434 0.246094 68.1699 0.105469 67.873C1.24609 67.6152 2.21094 67.2441 3 66.7598C2.32812 66.416 1.625 66.0645 0.890625 65.7051C1.14062 65.3457 1.38281 64.9746 1.61719 64.5918H0.28125V63.8184ZM0.410156 59.7871H3.10547V57.1621H3.97266V59.7871H6.22266V60.5605H3.97266V61.2754L4.32422 60.877C5.05078 61.4082 5.66016 61.877 6.15234 62.2832L5.58984 62.9395C5.16016 62.5332 4.62109 62.0762 3.97266 61.5684V62.9043H3.10547V61.2637C2.39453 62.0059 1.56641 62.6582 0.621094 63.2207C0.472656 62.9941 0.304688 62.7559 0.117188 62.5059C1.10156 61.9746 2.00391 61.3262 2.82422 60.5605H0.410156V59.7871ZM10.1016 60.1152H7.91016C7.87109 60.2168 7.82812 60.3145 7.78125 60.4082C7.92188 62.0645 8.3125 63.4824 8.95312 64.6621C9.57812 63.5215 9.96094 62.0059 10.1016 60.1152ZM2.03906 65.4355C2.59375 65.6855 3.16406 65.9473 3.75 66.2207C4.28906 65.7598 4.71094 65.2168 5.01562 64.5918H2.57812C2.39844 64.8809 2.21875 65.1621 2.03906 65.4355ZM5.69531 57.4551L6.42188 57.9355C5.99219 58.498 5.5625 59.0176 5.13281 59.4941C4.95312 59.3379 4.74219 59.1738 4.5 59.002C4.90625 58.5254 5.30469 58.0098 5.69531 57.4551ZM0.714844 57.9707L1.38281 57.5137C1.73438 57.9434 2.09766 58.4043 2.47266 58.8965L1.74609 59.4121C1.40234 58.9043 1.05859 58.4238 0.714844 57.9707ZM17.4375 64.498H19.8516V63.0098H17.1211C17.0352 65.4121 16.4805 67.2676 15.457 68.5762C15.2695 68.334 15.0586 68.0879 14.8242 67.8379C15.8008 66.6348 16.2891 64.7871 16.2891 62.2949V57.7246H23.2031V61.123H22.3594V60.7598H17.1328V62.2129H19.8516V60.9824H20.6953V62.2129H23.7891V63.0098H20.6953V64.498H23.1328V68.459H22.2891V67.7793H18.2812V68.459H17.4375V64.498ZM12.1875 63.3145C12.7422 63.1621 13.2812 63.0078 13.8047 62.8516V60.1738H12.3281V59.3301H13.8047V57.0918H14.6719V59.3301H15.9492V60.1738H14.6719V62.582C15.043 62.4648 15.4062 62.3457 15.7617 62.2246C15.7695 62.5762 15.793 62.8809 15.832 63.1387C15.4297 63.2676 15.043 63.3945 14.6719 63.5195V67.0645C14.6719 67.9473 14.2852 68.3965 13.5117 68.4121C13.2695 68.4199 12.9102 68.416 12.4336 68.4004C12.4023 68.0879 12.3555 67.7637 12.293 67.4277C12.7227 67.4746 13.0508 67.498 13.2773 67.498C13.6289 67.498 13.8047 67.2988 13.8047 66.9004V63.8066C13.2695 63.9863 12.7695 64.1582 12.3047 64.3223L12.1875 63.3145ZM22.3594 58.498H17.1328V59.9863H22.3594V58.498ZM22.2891 65.2715H18.2812V67.0176H22.2891V65.2715ZM27.6797 65.5762H28.8047V59.6816H31.3477V58.8027H28.0664V58.0762H31.3477V57.0684H32.1914V58.0762H35.5547V58.8027H32.1914V59.6816H34.7109V65.5762H35.8125V66.3027H27.6797V65.5762ZM24.1523 65.6465C24.707 65.4902 25.2773 65.3145 25.8633 65.1191V60.9473H24.3164V60.1152H25.8633V57.1855H26.707V60.1152H28.1016V60.9473H26.707V64.8496C27.1836 64.6855 27.6758 64.5098 28.1836 64.3223C28.207 64.666 28.2383 64.959 28.2773 65.2012C27.0664 65.584 25.8242 66.0293 24.5508 66.5371L24.1523 65.6465ZM29.625 65.5762H33.8906V64.7559H29.625V65.5762ZM29.625 62.6348H33.8906V61.8262H29.625V62.6348ZM33.8906 60.3613H29.625V61.1699H33.8906V60.3613ZM29.625 64.0996H33.8906V63.291H29.625V64.0996ZM27.4219 67.9668C28.4922 67.5762 29.5273 67.0684 30.5273 66.4434L31.0898 67.0645C30.0742 67.6895 29.0273 68.2285 27.9492 68.6816C27.793 68.4395 27.6172 68.2012 27.4219 67.9668ZM32.3672 67.0762L32.8242 66.4434C34.0352 66.9746 35.0664 67.4629 35.918 67.9082L35.4492 68.6465C34.5664 68.1465 33.5391 67.623 32.3672 67.0762ZM40.6289 57.6543H47.1094C47.0703 58.4512 47.0352 59.0527 47.0039 59.459C46.9492 60.4277 46.3789 60.9121 45.293 60.9121C44.8398 60.9121 44.1797 60.9043 43.3125 60.8887C43.2578 60.5918 43.1953 60.2793 43.125 59.9512C43.9844 60.0293 44.6719 60.0684 45.1875 60.0684C45.7734 60.0684 46.0859 59.8301 46.125 59.3535C46.1484 59.1035 46.1641 58.8105 46.1719 58.4746H41.543V61.8262H47.1797V62.6348C46.8008 64.0332 46.166 65.2129 45.2754 66.1738C45.9902 66.7559 46.8516 67.2207 47.8594 67.5684C47.5859 67.9121 47.3594 68.2012 47.1797 68.4355C46.1797 67.9551 45.3223 67.4082 44.6074 66.7949C43.877 67.4004 43.0352 67.9785 42.082 68.5293C41.9414 68.2949 41.7695 68.0293 41.5664 67.7324C42.4883 67.2324 43.2832 66.709 43.9512 66.1621C43.1465 65.2598 42.5801 64.0879 42.252 62.6465H41.543V68.6113H40.6289V57.6543ZM36.1758 63.2559C36.7656 63.0918 37.3359 62.9297 37.8867 62.7695V60.2324H36.3281V59.4238H37.8867V57.1387H38.7891V59.4238H40.1836V60.2324H38.7891V62.4941C39.2617 62.3457 39.7188 62.1973 40.1602 62.0488C40.1602 62.4238 40.168 62.7285 40.1836 62.9629C39.7305 63.1074 39.2656 63.2578 38.7891 63.4141V67.123C38.7891 67.9668 38.4102 68.3965 37.6523 68.4121C37.3398 68.4199 36.9531 68.4199 36.4922 68.4121C36.4453 68.084 36.3945 67.752 36.3398 67.416C36.8008 67.4629 37.1484 67.4863 37.3828 67.4863C37.7188 67.4863 37.8867 67.2949 37.8867 66.9121V63.707C37.3672 63.875 36.8359 64.0488 36.293 64.2285L36.1758 63.2559ZM46.2305 62.6465H43.0781C43.3438 63.7871 43.8535 64.7598 44.6074 65.5645C45.3848 64.748 45.9258 63.7754 46.2305 62.6465Z" fill="black" fill-opacity="0.85"/>
<path d="M34.439 33.8819C34.8373 33.8824 35.2204 34.0345 35.5101 34.3073C35.7997 34.5801 35.974 34.9529 35.9973 35.3496C36.0207 35.7463 35.8913 36.1369 35.6356 36.4416C35.38 36.7463 35.0174 36.9422 34.6219 36.9891L34.439 37H12.561C12.1627 36.9996 11.7796 36.8474 11.4899 36.5746C11.2003 36.3018 11.026 35.929 11.0027 35.5323C10.9793 35.1357 11.1087 34.7451 11.3644 34.4403C11.62 34.1356 11.9826 33.9398 12.3781 33.8929L12.561 33.8819H34.439ZM22.7577 14.7293L30.104 22.3436L21.1419 31.1957C20.5965 31.732 19.5776 32.2886 18.7618 32.5038L18.4993 32.5614L14.0815 33.3394C12.4438 33.6278 11.3405 32.6004 11.5108 31.0242L11.5421 30.806L12.3235 26.4002C12.4578 25.6331 12.9657 24.612 13.508 23.9743L13.6893 23.7763L22.7577 14.7293ZM32.6513 9.97267L32.8544 10.1644L34.8375 12.1912C36.2705 13.6551 36.319 15.9905 34.9782 17.5168L34.7859 17.7195L32.3262 20.15L24.9674 12.5232L27.3677 10.1301C28.0278 9.46827 28.9073 9.06937 29.8411 9.00824C30.775 8.9471 31.6992 9.22793 32.4403 9.79806L32.6513 9.97267Z" fill="white" fill-opacity="0.85"/>
<defs>
<linearGradient id="paint0_linear_22_328" x1="24" y1="48" x2="24" y2="1.78814e-07" gradientUnits="userSpaceOnUse">
<stop stop-color="#1F8BD7"/>
<stop offset="1" stop-color="#45EFAD"/>
</linearGradient>
<linearGradient id="paint1_linear_22_328" x1="24" y1="48" x2="24" y2="1.78814e-07" gradientUnits="userSpaceOnUse">
<stop stop-color="#1F8BD7"/>
<stop offset="1" stop-color="#45EFAD"/>
</linearGradient>
</defs>
</svg>
