<svg width="48" height="69" viewBox="0 0 48 69" fill="none" xmlns="http://www.w3.org/2000/svg">
<rect width="48" height="48" rx="16" fill="url(#paint0_linear_22_332)"/>
<mask id="mask0_22_332" style="mask-type:alpha" maskUnits="userSpaceOnUse" x="0" y="0" width="48" height="48">
<rect width="48" height="48" rx="16" fill="url(#paint1_linear_22_332)"/>
</mask>
<g mask="url(#mask0_22_332)">
<circle cx="3.5" cy="50.5" r="17.5" fill="white" fill-opacity="0.2"/>
<circle cx="41" cy="4" r="10" fill="white" fill-opacity="0.2"/>
</g>
<path d="M7.82812 57.0566L8.76562 57.1973C8.60156 57.9551 8.41016 58.6621 8.19141 59.3184H11.7773V60.1152H11.0391C10.8438 62.4121 10.3438 64.2363 9.53906 65.5879C10.1719 66.4473 10.9766 67.1504 11.9531 67.6973C11.7031 68.041 11.4922 68.3496 11.3203 68.623C10.3672 68.0059 9.57422 67.2715 8.94141 66.4199C8.22266 67.3105 7.36719 68.084 6.375 68.7402C6.20312 68.5137 5.98047 68.2676 5.70703 68.002C6.80078 67.2832 7.6875 66.4668 8.36719 65.5527C7.73438 64.459 7.31641 63.1973 7.11328 61.7676C6.94922 62.0566 6.77734 62.3262 6.59766 62.5762C6.44141 62.3496 6.24609 62.0996 6.01172 61.8262C6.91797 60.5215 7.52344 58.9316 7.82812 57.0566ZM0.28125 63.8184H2.0625C2.23438 63.5215 2.40234 63.2168 2.56641 62.9043L3.41016 63.1738C3.28516 63.3926 3.16016 63.6074 3.03516 63.8184H5.90625V64.5801C5.60938 65.3457 5.16016 66.0176 4.55859 66.5957C4.98828 66.7988 5.42578 67.002 5.87109 67.2051L5.35547 68.0137C4.87109 67.7402 4.36719 67.4668 3.84375 67.1934C2.96094 67.8262 1.84766 68.3262 0.503906 68.6934C0.378906 68.4434 0.246094 68.1699 0.105469 67.873C1.24609 67.6152 2.21094 67.2441 3 66.7598C2.32812 66.416 1.625 66.0645 0.890625 65.7051C1.14062 65.3457 1.38281 64.9746 1.61719 64.5918H0.28125V63.8184ZM0.410156 59.7871H3.10547V57.1621H3.97266V59.7871H6.22266V60.5605H3.97266V61.2754L4.32422 60.877C5.05078 61.4082 5.66016 61.877 6.15234 62.2832L5.58984 62.9395C5.16016 62.5332 4.62109 62.0762 3.97266 61.5684V62.9043H3.10547V61.2637C2.39453 62.0059 1.56641 62.6582 0.621094 63.2207C0.472656 62.9941 0.304688 62.7559 0.117188 62.5059C1.10156 61.9746 2.00391 61.3262 2.82422 60.5605H0.410156V59.7871ZM10.1016 60.1152H7.91016C7.87109 60.2168 7.82812 60.3145 7.78125 60.4082C7.92188 62.0645 8.3125 63.4824 8.95312 64.6621C9.57812 63.5215 9.96094 62.0059 10.1016 60.1152ZM2.03906 65.4355C2.59375 65.6855 3.16406 65.9473 3.75 66.2207C4.28906 65.7598 4.71094 65.2168 5.01562 64.5918H2.57812C2.39844 64.8809 2.21875 65.1621 2.03906 65.4355ZM5.69531 57.4551L6.42188 57.9355C5.99219 58.498 5.5625 59.0176 5.13281 59.4941C4.95312 59.3379 4.74219 59.1738 4.5 59.002C4.90625 58.5254 5.30469 58.0098 5.69531 57.4551ZM0.714844 57.9707L1.38281 57.5137C1.73438 57.9434 2.09766 58.4043 2.47266 58.8965L1.74609 59.4121C1.40234 58.9043 1.05859 58.4238 0.714844 57.9707ZM17.4375 64.498H19.8516V63.0098H17.1211C17.0352 65.4121 16.4805 67.2676 15.457 68.5762C15.2695 68.334 15.0586 68.0879 14.8242 67.8379C15.8008 66.6348 16.2891 64.7871 16.2891 62.2949V57.7246H23.2031V61.123H22.3594V60.7598H17.1328V62.2129H19.8516V60.9824H20.6953V62.2129H23.7891V63.0098H20.6953V64.498H23.1328V68.459H22.2891V67.7793H18.2812V68.459H17.4375V64.498ZM12.1875 63.3145C12.7422 63.1621 13.2812 63.0078 13.8047 62.8516V60.1738H12.3281V59.3301H13.8047V57.0918H14.6719V59.3301H15.9492V60.1738H14.6719V62.582C15.043 62.4648 15.4062 62.3457 15.7617 62.2246C15.7695 62.5762 15.793 62.8809 15.832 63.1387C15.4297 63.2676 15.043 63.3945 14.6719 63.5195V67.0645C14.6719 67.9473 14.2852 68.3965 13.5117 68.4121C13.2695 68.4199 12.9102 68.416 12.4336 68.4004C12.4023 68.0879 12.3555 67.7637 12.293 67.4277C12.7227 67.4746 13.0508 67.498 13.2773 67.498C13.6289 67.498 13.8047 67.2988 13.8047 66.9004V63.8066C13.2695 63.9863 12.7695 64.1582 12.3047 64.3223L12.1875 63.3145ZM22.3594 58.498H17.1328V59.9863H22.3594V58.498ZM22.2891 65.2715H18.2812V67.0176H22.2891V65.2715ZM24.5742 58.2637H29.5781V57.0098H30.4102V58.2637H35.4844V59.0488H31.1426C32.377 59.9902 33.9375 60.7012 35.8242 61.1816C35.6211 61.4863 35.4414 61.7637 35.2852 62.0137C34.8633 61.8691 34.457 61.7129 34.0664 61.5449V66.6309H33.1758V66.1035H26.8594V66.6426H25.9688V61.6035C25.5703 61.7871 25.1523 61.9629 24.7148 62.1309C24.5508 61.8887 24.3672 61.6387 24.1641 61.3809C26.1797 60.7441 27.7246 59.9668 28.7988 59.0488H24.5742V58.2637ZM24.293 67.2637H35.707V68.1074H24.293V67.2637ZM29.5781 61.252V59.2422C28.6797 60.1094 27.5195 60.877 26.0977 61.5449H34.0605C32.6191 60.9316 31.4023 60.1719 30.4102 59.2656V61.252H29.5781ZM26.8594 65.2949H33.1758V64.2168H26.8594V65.2949ZM33.1758 62.3535H26.8594V63.4199H33.1758V62.3535ZM40.4648 60.7129H44.7539V66.0566H41.3086V66.748H40.4648V60.7129ZM39 60.8535C39.9688 59.7285 40.7773 58.4238 41.4258 56.9395L42.3164 57.2793C42.1094 57.7012 41.9004 58.1035 41.6895 58.4863H47.4023C47.3086 62.0566 47.2305 64.6426 47.168 66.2441C47.1055 67.6504 46.4961 68.3535 45.3398 68.3535C44.6289 68.3535 43.9922 68.334 43.4297 68.2949C43.3828 67.9824 43.3164 67.6387 43.2305 67.2637C43.9258 67.373 44.5547 67.4277 45.1172 67.4277C45.8203 67.4277 46.1992 66.9746 46.2539 66.0684C46.332 64.3105 46.3984 62.0645 46.4531 59.3301H41.2031C40.7383 60.0957 40.2578 60.7793 39.7617 61.3809C39.5742 61.2246 39.3203 61.0488 39 60.8535ZM39.8086 65.7871C39.832 66.1934 39.8594 66.5293 39.8906 66.7949C38.8984 67.4434 38.1719 67.9629 37.7109 68.3535L37.1602 67.5684C37.4258 67.3418 37.5586 67.0059 37.5586 66.5605V61.9082H36.1875V61.0645H38.4609V66.7246C38.9062 66.4277 39.3555 66.1152 39.8086 65.7871ZM43.9102 65.2598V63.748H41.3086V65.2598H43.9102ZM43.9102 61.5098H41.3086V62.9746H43.9102V61.5098ZM37.3594 57.2324C38.2109 58.1074 38.8281 58.7559 39.2109 59.1777L38.4141 59.8457C37.9219 59.1973 37.3398 58.5254 36.668 57.8301L37.3594 57.2324Z" fill="black" fill-opacity="0.85"/>
<path d="M33.4996 29C32.6716 29 32 29.6715 32 30.5C32 31.3285 32.6716 32 33.4996 32C34.3284 32 35 31.3285 35 30.5C35 29.6715 34.3284 29 33.4996 29Z" fill="white" fill-opacity="0.85"/>
<path d="M34.0004 25C30.6865 25 28 27.6855 28 30.9992C28 34.313 30.6865 37 34.0004 37C37.3135 37 40 34.313 40 30.9992C40 27.6854 37.3135 25 34.0004 25ZM36.8896 34.5262C36.7067 34.5262 36.5404 34.4519 36.4202 34.3321L34.4764 32.3876C34.0812 32.6213 33.6225 32.7571 33.1305 32.7571C31.6651 32.7571 30.4771 31.5698 30.4771 30.104C30.4771 28.6389 31.6651 27.4509 33.1305 27.4509C34.5959 27.4509 35.7839 28.6389 35.7839 30.104C35.7839 30.5956 35.6479 31.0546 35.4144 31.4499L37.3589 33.3936C37.4783 33.5142 37.5531 33.6796 37.5531 33.8632C37.5532 34.2297 37.2561 34.5262 36.8896 34.5262Z" fill="white" fill-opacity="0.85"/>
<path d="M16.2922 13.2501C17.0083 13.2501 17.8043 12.4576 17.8043 11.75V9.50001C17.8043 8.7925 17.3066 8 16.2922 8C15.424 8 14.7801 8.7925 14.7801 9.50001V11.75C14.7801 12.4576 15.5761 13.2501 16.2922 13.2501ZM23.0964 13.2501C24.322 13.2501 24.6085 12.4576 24.6085 11.75V9.50001C24.6085 8.7925 24.1862 8 23.0964 8C22.0259 8 21.5844 8.7925 21.5844 9.50001V11.75C21.5844 12.4576 22.1108 13.2501 23.0964 13.2501ZM29.9006 13.2501C30.8855 13.2501 31.4127 12.4576 31.4127 11.75V9.50001C31.4127 8.7925 30.8856 8 29.9006 8C29.0324 8 28.3885 8.7925 28.3885 9.50001V11.75C28.3886 12.4576 29.1852 13.2501 29.9006 13.2501ZM34.4368 38C34.5267 38 34.6197 37.9842 34.7135 37.9551C34.4453 37.9845 34.1731 38 33.8971 38H34.4368ZM26.5524 30.7417C26.5524 26.7339 29.8408 23.4848 33.8971 23.4848C34.628 23.4848 35.3337 23.5909 36 23.7873L35.9488 12.5001C35.9488 11.7925 35.153 11 34.4368 11H32.9247V12.5001C32.9247 13.9151 31.3322 14.7501 29.9006 14.7501C28.4691 14.7501 26.8765 13.9151 26.8765 12.5001V11H26.1205V12.5001C26.1205 13.9151 24.5169 14.7501 23.0964 14.7501C20.7892 14.7501 20.0724 13.1651 20.0724 11.7501V11.0001H19.3163V11.7501C19.3148 13.1724 18.1779 14.7384 16.2236 14.7384C14.792 14.7384 13.2681 13.6705 13.2681 11.7501V11.0001H12.5121C11.7959 11.0001 11 11.7925 11 12.5001V36.292C11 36.9996 11.7959 38 12.5121 38H33.8971C29.8409 38 26.5524 34.751 26.5524 30.7417ZM15.5362 19.25C15.5362 19.25 31.3049 19.3189 31.3455 19.25C32.0772 19.2237 32.9247 19.6822 32.9247 20.7501C32.9247 21.7593 32.1289 22.2501 31.4127 22.2501H15.5362C14.82 22.2501 14.0241 21.8795 14.0241 20.7501C14.0241 19.7921 14.82 19.25 15.5362 19.25ZM22.3404 34.25H15.5362C14.9396 34.25 14.0241 33.9131 14.0241 32.75C14.0241 31.8697 14.9396 31.1694 15.5362 31.1694L22.3404 31.25C22.937 31.25 23.8525 31.5752 23.8525 32.75C23.8525 33.6816 22.937 34.25 22.3404 34.25ZM23.8525 28.25H15.5362C14.82 28.25 14.0241 27.7813 14.0241 26.75C14.0241 25.6118 14.82 25.25 15.5362 25.25H23.8525C24.5685 25.25 25.3645 25.8096 25.3645 26.75C25.3645 27.4576 24.5686 28.25 23.8525 28.25Z" fill="white" fill-opacity="0.85"/>
<defs>
<linearGradient id="paint0_linear_22_332" x1="24" y1="48" x2="24" y2="1.78814e-07" gradientUnits="userSpaceOnUse">
<stop stop-color="#7459FE"/>
<stop offset="1" stop-color="#76C5FF"/>
</linearGradient>
<linearGradient id="paint1_linear_22_332" x1="24" y1="48" x2="24" y2="1.78814e-07" gradientUnits="userSpaceOnUse">
<stop stop-color="#1F8BD7"/>
<stop offset="1" stop-color="#45EFAD"/>
</linearGradient>
</defs>
</svg>
