<svg width="48" height="69" viewBox="0 0 48 69" fill="none" xmlns="http://www.w3.org/2000/svg">
<rect width="48" height="48" rx="16" fill="url(#paint0_linear_22_339)"/>
<mask id="mask0_22_339" style="mask-type:alpha" maskUnits="userSpaceOnUse" x="0" y="0" width="48" height="48">
<rect width="48" height="48" rx="16" fill="url(#paint1_linear_22_339)"/>
</mask>
<g mask="url(#mask0_22_339)">
<circle cx="3.5" cy="50.5" r="17.5" fill="white" fill-opacity="0.2"/>
<circle cx="41" cy="4" r="10" fill="white" fill-opacity="0.2"/>
</g>
<path d="M7.82812 57.0566L8.76562 57.1973C8.60156 57.9551 8.41016 58.6621 8.19141 59.3184H11.7773V60.1152H11.0391C10.8438 62.4121 10.3438 64.2363 9.53906 65.5879C10.1719 66.4473 10.9766 67.1504 11.9531 67.6973C11.7031 68.041 11.4922 68.3496 11.3203 68.623C10.3672 68.0059 9.57422 67.2715 8.94141 66.4199C8.22266 67.3105 7.36719 68.084 6.375 68.7402C6.20312 68.5137 5.98047 68.2676 5.70703 68.002C6.80078 67.2832 7.6875 66.4668 8.36719 65.5527C7.73438 64.459 7.31641 63.1973 7.11328 61.7676C6.94922 62.0566 6.77734 62.3262 6.59766 62.5762C6.44141 62.3496 6.24609 62.0996 6.01172 61.8262C6.91797 60.5215 7.52344 58.9316 7.82812 57.0566ZM0.28125 63.8184H2.0625C2.23438 63.5215 2.40234 63.2168 2.56641 62.9043L3.41016 63.1738C3.28516 63.3926 3.16016 63.6074 3.03516 63.8184H5.90625V64.5801C5.60938 65.3457 5.16016 66.0176 4.55859 66.5957C4.98828 66.7988 5.42578 67.002 5.87109 67.2051L5.35547 68.0137C4.87109 67.7402 4.36719 67.4668 3.84375 67.1934C2.96094 67.8262 1.84766 68.3262 0.503906 68.6934C0.378906 68.4434 0.246094 68.1699 0.105469 67.873C1.24609 67.6152 2.21094 67.2441 3 66.7598C2.32812 66.416 1.625 66.0645 0.890625 65.7051C1.14062 65.3457 1.38281 64.9746 1.61719 64.5918H0.28125V63.8184ZM0.410156 59.7871H3.10547V57.1621H3.97266V59.7871H6.22266V60.5605H3.97266V61.2754L4.32422 60.877C5.05078 61.4082 5.66016 61.877 6.15234 62.2832L5.58984 62.9395C5.16016 62.5332 4.62109 62.0762 3.97266 61.5684V62.9043H3.10547V61.2637C2.39453 62.0059 1.56641 62.6582 0.621094 63.2207C0.472656 62.9941 0.304688 62.7559 0.117188 62.5059C1.10156 61.9746 2.00391 61.3262 2.82422 60.5605H0.410156V59.7871ZM10.1016 60.1152H7.91016C7.87109 60.2168 7.82812 60.3145 7.78125 60.4082C7.92188 62.0645 8.3125 63.4824 8.95312 64.6621C9.57812 63.5215 9.96094 62.0059 10.1016 60.1152ZM2.03906 65.4355C2.59375 65.6855 3.16406 65.9473 3.75 66.2207C4.28906 65.7598 4.71094 65.2168 5.01562 64.5918H2.57812C2.39844 64.8809 2.21875 65.1621 2.03906 65.4355ZM5.69531 57.4551L6.42188 57.9355C5.99219 58.498 5.5625 59.0176 5.13281 59.4941C4.95312 59.3379 4.74219 59.1738 4.5 59.002C4.90625 58.5254 5.30469 58.0098 5.69531 57.4551ZM0.714844 57.9707L1.38281 57.5137C1.73438 57.9434 2.09766 58.4043 2.47266 58.8965L1.74609 59.4121C1.40234 58.9043 1.05859 58.4238 0.714844 57.9707ZM17.4375 64.498H19.8516V63.0098H17.1211C17.0352 65.4121 16.4805 67.2676 15.457 68.5762C15.2695 68.334 15.0586 68.0879 14.8242 67.8379C15.8008 66.6348 16.2891 64.7871 16.2891 62.2949V57.7246H23.2031V61.123H22.3594V60.7598H17.1328V62.2129H19.8516V60.9824H20.6953V62.2129H23.7891V63.0098H20.6953V64.498H23.1328V68.459H22.2891V67.7793H18.2812V68.459H17.4375V64.498ZM12.1875 63.3145C12.7422 63.1621 13.2812 63.0078 13.8047 62.8516V60.1738H12.3281V59.3301H13.8047V57.0918H14.6719V59.3301H15.9492V60.1738H14.6719V62.582C15.043 62.4648 15.4062 62.3457 15.7617 62.2246C15.7695 62.5762 15.793 62.8809 15.832 63.1387C15.4297 63.2676 15.043 63.3945 14.6719 63.5195V67.0645C14.6719 67.9473 14.2852 68.3965 13.5117 68.4121C13.2695 68.4199 12.9102 68.416 12.4336 68.4004C12.4023 68.0879 12.3555 67.7637 12.293 67.4277C12.7227 67.4746 13.0508 67.498 13.2773 67.498C13.6289 67.498 13.8047 67.2988 13.8047 66.9004V63.8066C13.2695 63.9863 12.7695 64.1582 12.3047 64.3223L12.1875 63.3145ZM22.3594 58.498H17.1328V59.9863H22.3594V58.498ZM22.2891 65.2715H18.2812V67.0176H22.2891V65.2715ZM25.6875 60.8184H29.543V59.5527H30.457V60.8184H34.3242V66.5605H33.457V66.0098H30.457V68.5645H29.543V66.0098H26.5547V66.5605H25.6875V60.8184ZM24.6445 58.3691H29.7656C29.5664 58.0449 29.3398 57.7051 29.0859 57.3496L29.8945 56.8691C30.2148 57.2754 30.4961 57.6621 30.7383 58.0293L30.1875 58.3691H35.3672V60.5605H34.4531V59.2129H25.5586V60.5605H24.6445V58.3691ZM30.457 65.1895H33.457V63.8066H30.457V65.1895ZM26.5547 65.1895H29.543V63.8066H26.5547V65.1895ZM33.457 61.6387H30.457V63.0098H33.457V61.6387ZM26.5547 63.0098H29.543V61.6387H26.5547V63.0098ZM43.7344 57.1621H44.6484V61.5098C45.5039 60.7715 46.2812 59.9902 46.9805 59.166L47.707 59.8223C46.6289 60.9277 45.6094 61.875 44.6484 62.6641V66.6777C44.6484 67.1465 44.8477 67.3809 45.2461 67.3809H45.9375C46.4062 67.3809 46.6758 67.166 46.7461 66.7363C46.8398 66.2598 46.9141 65.6035 46.9688 64.7676C47.2578 64.8926 47.5547 65.0059 47.8594 65.1074C47.7891 65.8418 47.707 66.4785 47.6133 67.0176C47.4727 67.8535 47.0234 68.2715 46.2656 68.2715H45.1289C44.1992 68.2715 43.7344 67.7949 43.7344 66.8418V57.1621ZM36.1523 63.4082C36.6797 63.2637 37.2344 63.0996 37.8164 62.916V60.1855H36.3047V59.3418H37.8164V57.0332H38.7305V59.3418H40.0078V60.1855H38.7305V62.6289C39.1289 62.4961 39.5391 62.3574 39.9609 62.2129C39.9375 62.5488 39.9219 62.8613 39.9141 63.1504C39.5352 63.291 39.1406 63.4336 38.7305 63.5781V67.1582C38.7305 67.9785 38.3633 68.4043 37.6289 68.4355C37.3164 68.4512 36.9531 68.4551 36.5391 68.4473C36.5078 68.1348 36.4609 67.8145 36.3984 67.4863C36.7578 67.5254 37.082 67.5449 37.3711 67.5449C37.668 67.5449 37.8164 67.3848 37.8164 67.0645V63.8887C37.3281 64.0527 36.8203 64.2207 36.293 64.3926L36.1523 63.4082ZM43.3945 65.6582C43.418 66.0098 43.4492 66.3379 43.4883 66.6426C42.4883 67.2598 41.7852 67.709 41.3789 67.9902C41.1523 68.1543 40.9609 68.3184 40.8047 68.4824L40.1836 67.7207C40.4336 67.4941 40.5586 67.1621 40.5586 66.7246V57.1621H41.4727V60.748H43.4062V61.6152H41.4727V66.8535C41.9961 66.5488 42.6367 66.1504 43.3945 65.6582Z" fill="black" fill-opacity="0.85"/>
<path d="M12 31.7124V28.2275C12 26.3047 13.5294 24.7425 15.4118 24.7425H20.5882V21.9785C18.5882 20.7768 17.1765 18.4936 17.1765 15.97C17.1765 12.1245 20.2353 9 24 9C27.7647 9 30.8235 12.1245 30.8235 15.97C30.8235 18.6137 29.4118 20.7768 27.4118 21.9785V24.7425H32.5882C34.4706 24.7425 36 26.3047 36 28.2275V31.7124H12ZM30.8235 37H17.1765V33.515H30.9412V37H30.8235Z" fill="white" fill-opacity="0.85"/>
<defs>
<linearGradient id="paint0_linear_22_339" x1="24" y1="48" x2="24" y2="1.78814e-07" gradientUnits="userSpaceOnUse">
<stop stop-color="#B75ED8"/>
<stop offset="1" stop-color="#F4B7E2"/>
</linearGradient>
<linearGradient id="paint1_linear_22_339" x1="24" y1="48" x2="24" y2="1.78814e-07" gradientUnits="userSpaceOnUse">
<stop stop-color="#1F8BD7"/>
<stop offset="1" stop-color="#45EFAD"/>
</linearGradient>
</defs>
</svg>
