<svg width="48" height="69" viewBox="0 0 48 69" fill="none" xmlns="http://www.w3.org/2000/svg">
<rect width="48" height="48" rx="16" fill="url(#paint0_linear_22_288)"/>
<mask id="mask0_22_288" style="mask-type:alpha" maskUnits="userSpaceOnUse" x="0" y="0" width="48" height="48">
<rect width="48" height="48" rx="16" fill="url(#paint1_linear_22_288)"/>
</mask>
<g mask="url(#mask0_22_288)">
<circle cx="3.5" cy="50.5" r="17.5" fill="white" fill-opacity="0.2"/>
<circle cx="41" cy="4" r="10" fill="white" fill-opacity="0.2"/>
</g>
<path d="M3.92578 64.0527C4.16797 65.5527 3.82422 66.3926 2.89453 66.5723C2.63672 66.627 2.27734 66.6309 1.81641 66.584C1.75391 66.3027 1.67969 66.0215 1.59375 65.7402V68.541H0.75V57.6777H4.04297V58.498C3.60547 59.9121 3.25781 60.998 3 61.7559C3.5 62.4824 3.80859 63.248 3.92578 64.0527ZM3.77344 67.2402H8.54297C9.18359 65.5449 9.69141 64.0801 10.0664 62.8457L11.0391 63.1855C10.75 64.0137 10.25 65.3652 9.53906 67.2402H11.5195V68.1074H3.77344V67.2402ZM8.36719 57.1035L8.21484 57.4551C9.12891 58.9941 10.3398 60.1738 11.8477 60.9941C11.5898 61.3066 11.375 61.5801 11.2031 61.8145C9.77344 60.8379 8.625 59.6621 7.75781 58.2871C6.88281 59.6309 5.70312 60.8418 4.21875 61.9199C4.07031 61.7168 3.86719 61.4707 3.60938 61.1816C5.3125 60.0488 6.58203 58.6895 7.41797 57.1035H8.36719ZM2.55469 65.7285C3.09375 65.6738 3.26562 65.1035 3.07031 64.0176C2.96094 63.4082 2.63281 62.6973 2.08594 61.8848C2.42969 60.8379 2.77344 59.7051 3.11719 58.4863H1.59375V65.6465C1.9375 65.7324 2.25781 65.7598 2.55469 65.7285ZM4.99219 61.3691H10.3828V62.2129H4.99219V61.3691ZM4.46484 63.373L5.26172 63.0684C5.66797 64.123 6.03906 65.2168 6.375 66.3496L5.46094 66.6426C5.17188 65.4785 4.83984 64.3887 4.46484 63.373ZM6.78516 62.9395L7.61719 62.6816C7.98438 63.7988 8.27734 64.8223 8.49609 65.752L7.55859 65.998C7.36328 64.9277 7.10547 63.9082 6.78516 62.9395ZM17.2617 68.4941H16.3711V62.5527H22.957V67.0762C22.957 67.9434 22.5625 68.3848 21.7734 68.4004C21.2578 68.4082 20.5938 68.4082 19.7812 68.4004C19.7422 68.1504 19.6836 67.8496 19.6055 67.498C20.3477 67.5449 20.9531 67.5684 21.4219 67.5684C21.8516 67.5684 22.0664 67.3809 22.0664 67.0059V66.373H17.2617V68.4941ZM15.6094 61.0996H19.1953V60.291H16.2422V59.5527H19.1953V58.7676H15.9141V58.0293H19.1953V56.9746H20.0859V58.0293H23.6016V58.7676H20.0859V59.5527H23.2734V60.291H20.0859V61.0996H23.8477V61.8379H15.6094V61.0996ZM13.7461 57.0801H14.5781V59.4648L15.0234 59.1426C15.4219 59.6113 15.7773 60.0449 16.0898 60.4434L15.4336 60.9238C15.1914 60.5684 14.9062 60.1758 14.5781 59.7461V68.5293H13.7461V57.0801ZM22.0664 63.3027H17.2617V64.1113H22.0664V63.3027ZM17.2617 65.6465H22.0664V64.8379H17.2617V65.6465ZM12.5977 59.752L13.3477 59.8457C13.2617 60.791 13.1211 61.7949 12.9258 62.8574C12.7461 62.8105 12.4922 62.7559 12.1641 62.6934C12.3359 61.9277 12.4805 60.9473 12.5977 59.752ZM24.3047 66.9121H28.8984V57.2324H29.9648V60.7598H34.7812V61.6973H29.9648V66.9121H35.707V67.8496H24.3047V66.9121ZM40.6289 57.6543H47.1094C47.0703 58.4512 47.0352 59.0527 47.0039 59.459C46.9492 60.4277 46.3789 60.9121 45.293 60.9121C44.8398 60.9121 44.1797 60.9043 43.3125 60.8887C43.2578 60.5918 43.1953 60.2793 43.125 59.9512C43.9844 60.0293 44.6719 60.0684 45.1875 60.0684C45.7734 60.0684 46.0859 59.8301 46.125 59.3535C46.1484 59.1035 46.1641 58.8105 46.1719 58.4746H41.543V61.8262H47.1797V62.6348C46.8008 64.0332 46.166 65.2129 45.2754 66.1738C45.9902 66.7559 46.8516 67.2207 47.8594 67.5684C47.5859 67.9121 47.3594 68.2012 47.1797 68.4355C46.1797 67.9551 45.3223 67.4082 44.6074 66.7949C43.877 67.4004 43.0352 67.9785 42.082 68.5293C41.9414 68.2949 41.7695 68.0293 41.5664 67.7324C42.4883 67.2324 43.2832 66.709 43.9512 66.1621C43.1465 65.2598 42.5801 64.0879 42.252 62.6465H41.543V68.6113H40.6289V57.6543ZM36.1758 63.2559C36.7656 63.0918 37.3359 62.9297 37.8867 62.7695V60.2324H36.3281V59.4238H37.8867V57.1387H38.7891V59.4238H40.1836V60.2324H38.7891V62.4941C39.2617 62.3457 39.7188 62.1973 40.1602 62.0488C40.1602 62.4238 40.168 62.7285 40.1836 62.9629C39.7305 63.1074 39.2656 63.2578 38.7891 63.4141V67.123C38.7891 67.9668 38.4102 68.3965 37.6523 68.4121C37.3398 68.4199 36.9531 68.4199 36.4922 68.4121C36.4453 68.084 36.3945 67.752 36.3398 67.416C36.8008 67.4629 37.1484 67.4863 37.3828 67.4863C37.7188 67.4863 37.8867 67.2949 37.8867 66.9121V63.707C37.3672 63.875 36.8359 64.0488 36.293 64.2285L36.1758 63.2559ZM46.2305 62.6465H43.0781C43.3438 63.7871 43.8535 64.7598 44.6074 65.5645C45.3848 64.748 45.9258 63.7754 46.2305 62.6465Z" fill="black" fill-opacity="0.85"/>
<path d="M33.2523 20.8759C32.3775 16.4117 28.6253 13 24.0018 13C20.3761 13 17.2528 15.1015 15.7526 18.2518C11.8738 18.7744 9 22.0573 9 26.1278C9 30.4595 12.3763 34 16.5009 34H32.7498C36.2491 34 39 31.1109 39 27.438C39.0036 24.0263 36.3792 21.1372 33.2523 20.8759V20.8759ZM26.5033 24.6041V29.3775C26.5033 29.6425 26.2936 29.8559 26.0334 29.8559H21.9702C21.71 29.8559 21.5003 29.6425 21.5003 29.3775V24.6041H18.8578C18.4421 24.6041 18.2324 24.0962 18.5216 23.7944L23.6656 18.3954C23.85 18.2003 24.1536 18.2003 24.338 18.3954L29.482 23.7944C29.7712 24.0962 29.5579 24.6041 29.1458 24.6041H26.5033V24.6041Z" fill="white" fill-opacity="0.85"/>
<defs>
<linearGradient id="paint0_linear_22_288" x1="24" y1="48" x2="24" y2="1.78814e-07" gradientUnits="userSpaceOnUse">
<stop stop-color="#7459FE"/>
<stop offset="1" stop-color="#76C5FF"/>
</linearGradient>
<linearGradient id="paint1_linear_22_288" x1="24" y1="48" x2="24" y2="1.78814e-07" gradientUnits="userSpaceOnUse">
<stop stop-color="#1F8BD7"/>
<stop offset="1" stop-color="#45EFAD"/>
</linearGradient>
</defs>
</svg>
