<svg width="48" height="69" viewBox="0 0 48 69" fill="none" xmlns="http://www.w3.org/2000/svg">
<rect width="48" height="48" rx="16" fill="url(#paint0_linear_22_354)"/>
<mask id="mask0_22_354" style="mask-type:alpha" maskUnits="userSpaceOnUse" x="0" y="0" width="48" height="48">
<rect width="48" height="48" rx="16" fill="url(#paint1_linear_22_354)"/>
</mask>
<g mask="url(#mask0_22_354)">
<circle cx="3.5" cy="50.5" r="17.5" fill="white" fill-opacity="0.2"/>
<circle cx="41" cy="4" r="10" fill="white" fill-opacity="0.2"/>
</g>
<path d="M5.09766 67.334C7.30859 67.3652 9.55469 67.3457 11.8359 67.2754C11.7031 67.5801 11.5781 67.8887 11.4609 68.2012C9.02344 68.2324 6.85156 68.2324 4.94531 68.2012C3.71875 68.1699 2.79297 67.709 2.16797 66.8184C1.69922 67.2246 1.20703 67.7402 0.691406 68.3652L0.1875 67.3809C0.640625 66.9668 1.16016 66.5137 1.74609 66.0215V62.0254H0.246094V61.1699H2.68359V66.1855C3.26172 66.9121 4.06641 67.2949 5.09766 67.334ZM5.35547 57.4082L6.28125 57.7832C5.55469 59.2676 4.81641 60.6895 4.06641 62.0488C4.77734 63.2988 5.53906 64.6621 6.35156 66.1387L5.48438 66.6309C4.71875 65.0215 3.92578 63.498 3.10547 62.0605C4.07422 60.2715 4.82422 58.7207 5.35547 57.4082ZM7.80469 57.5137L8.73047 57.8887C8.13672 59.1074 7.41016 60.4941 6.55078 62.0488C7.25391 63.2598 8 64.5879 8.78906 66.0332L7.92188 66.5254C7.13281 64.8848 6.35547 63.4004 5.58984 62.0723C6.53516 60.3223 7.27344 58.8027 7.80469 57.5137ZM10.3125 57.5371L11.2383 57.9121C10.6133 59.1699 9.89453 60.5449 9.08203 62.0371C9.82422 63.3496 10.5703 64.6738 11.3203 66.0098L10.4531 66.502C9.79688 65.0957 9.01953 63.6074 8.12109 62.0371C9.08984 60.2324 9.82031 58.7324 10.3125 57.5371ZM1.48828 57.1504C1.97266 57.7363 2.57031 58.4902 3.28125 59.4121L2.4375 59.9629C1.78125 58.9941 1.22656 58.2285 0.773438 57.666L1.48828 57.1504ZM12.5742 58.2637H17.5781V57.0098H18.4102V58.2637H23.4844V59.0488H19.1426C20.377 59.9902 21.9375 60.7012 23.8242 61.1816C23.6211 61.4863 23.4414 61.7637 23.2852 62.0137C22.8633 61.8691 22.457 61.7129 22.0664 61.5449V66.6309H21.1758V66.1035H14.8594V66.6426H13.9688V61.6035C13.5703 61.7871 13.1523 61.9629 12.7148 62.1309C12.5508 61.8887 12.3672 61.6387 12.1641 61.3809C14.1797 60.7441 15.7246 59.9668 16.7988 59.0488H12.5742V58.2637ZM12.293 67.2637H23.707V68.1074H12.293V67.2637ZM17.5781 61.252V59.2422C16.6797 60.1094 15.5195 60.877 14.0977 61.5449H22.0605C20.6191 60.9316 19.4023 60.1719 18.4102 59.2656V61.252H17.5781ZM14.8594 65.2949H21.1758V64.2168H14.8594V65.2949ZM21.1758 62.3535H14.8594V63.4199H21.1758V62.3535ZM29.5781 62.377V66.3613C29.5781 66.9473 29.8594 67.2402 30.4219 67.2402H33.4102C34.1211 67.2402 34.5234 66.9785 34.6172 66.4551C34.7031 66.0332 34.7852 65.4238 34.8633 64.627C35.1992 64.7598 35.5273 64.873 35.8477 64.9668C35.7461 65.6934 35.6328 66.3262 35.5078 66.8652C35.3359 67.709 34.7031 68.1309 33.6094 68.1309H30.0938C29.1406 68.1309 28.6641 67.6309 28.6641 66.6309V61.5098H34.0781V58.498H28.1719V57.6309H34.9922V62.9395H34.0781V62.377H29.5781ZM28.1367 65.6582C28.1602 66.0645 28.1875 66.4004 28.2188 66.666C27.2031 67.3457 26.418 67.9082 25.8633 68.3535L25.3125 67.5684C25.5781 67.3652 25.7109 67.0137 25.7109 66.5137V61.9316H24.1875V61.0645H26.625V66.7246C27.0938 66.4043 27.5977 66.0488 28.1367 65.6582ZM25.5117 57.209C26.3633 58.084 26.9805 58.7324 27.3633 59.1543L26.543 59.8457C26.0508 59.1973 25.4688 58.5254 24.7969 57.8301L25.5117 57.209ZM46.2188 62.9277L46.8984 63.7012C46.2344 64.1387 45.4102 64.6543 44.4258 65.248C45.3398 65.959 46.4805 66.4707 47.8477 66.7832C47.6055 67.1191 47.3906 67.4395 47.2031 67.7441C45.0781 67.0957 43.5156 65.9941 42.5156 64.4395V66.9824C42.5156 67.9277 42.0312 68.4004 41.0625 68.4004C40.6016 68.4004 40.0547 68.3926 39.4219 68.377C39.375 68.0879 39.3203 67.752 39.2578 67.3691C39.8203 67.4316 40.3242 67.4668 40.7695 67.4746C41.3242 67.4746 41.6016 67.2246 41.6016 66.7246V62.5293H36.3281V61.7441H45.0703V60.4902H37.8047V59.7402H45.0703V58.498H37.582V57.7129H45.9492V61.7441H47.7656V62.5293H42.5156V62.7988C42.8359 63.502 43.25 64.1191 43.7578 64.6504C44.6641 64.0645 45.4844 63.4902 46.2188 62.9277ZM36.1641 66.5488C37.6953 66.0723 39.3555 65.5059 41.1445 64.8496C41.207 65.1934 41.2656 65.4902 41.3203 65.7402C39.7656 66.2793 38.168 66.8457 36.5273 67.4395L36.1641 66.5488ZM37.793 62.8457C38.543 63.2988 39.3047 63.791 40.0781 64.3223L39.5039 65.0957C38.793 64.5566 38.043 64.0332 37.2539 63.5254L37.793 62.8457Z" fill="black" fill-opacity="0.85"/>
<path d="M33.2857 10C34.2708 10 35.2155 10.4023 35.9121 11.1183C36.6087 11.8344 37 12.8055 37 13.8182V34.1818C37 35.1945 36.6087 36.1656 35.9121 36.8817C35.2155 37.5977 34.2708 38 33.2857 38H17.1905C16.3127 37.9999 15.4633 37.6803 14.7928 37.0979C14.1223 36.5155 13.6741 35.7079 13.5276 34.8182H15.0238C15.7513 34.8182 16.4498 34.5256 16.9702 34.0031C17.4906 33.4806 17.7916 32.7696 17.8087 32.022C17.8258 31.2744 17.5578 30.5496 17.062 30.0025C16.5661 29.4554 15.8817 29.1293 15.155 29.0941L15.0238 29.0909H13.4762V26.8636H15.0238C15.7399 26.8636 16.4285 26.5802 16.9466 26.072C17.4648 25.5639 17.7727 24.8702 17.8064 24.1349L17.8095 24C17.8095 23.2639 17.5338 22.556 17.0395 22.0234C16.5452 21.4907 15.8703 21.1742 15.155 21.1395L15.0238 21.1364H13.4762V18.9091H15.0238C15.7399 18.9091 16.4285 18.6256 16.9466 18.1175C17.4648 17.6094 17.7727 16.9157 17.8064 16.1804L17.8095 16.0455C17.8095 15.3093 17.5338 14.6015 17.0395 14.0688C16.5452 13.5362 15.8703 13.2197 15.155 13.185L15.0238 13.1818H13.5276C13.6741 12.2921 14.1223 11.4845 14.7928 10.9021C15.4633 10.3197 16.3127 10.0001 17.1905 10H33.2857ZM15.0238 31C15.2701 31 15.5063 31.1006 15.6804 31.2796C15.8545 31.4586 15.9524 31.7014 15.9524 31.9545C15.9524 32.2077 15.8545 32.4505 15.6804 32.6295C15.5063 32.8085 15.2701 32.9091 15.0238 32.9091H11.9286C11.6823 32.9091 11.4461 32.8085 11.272 32.6295C11.0978 32.4505 11 32.2077 11 31.9545C11 31.7014 11.0978 31.4586 11.272 31.2796C11.4461 31.1006 11.6823 31 11.9286 31H15.0238ZM32.6048 17.7C32.4323 17.5227 32.2276 17.382 32.0022 17.2861C31.7769 17.1901 31.5354 17.1407 31.2915 17.1407C31.0475 17.1407 30.806 17.1901 30.5807 17.2861C30.3553 17.382 30.1506 17.5227 29.9781 17.7L21.0812 26.8471C20.8895 27.0441 20.766 27.3003 20.7296 27.5764L20.4789 29.4804C20.466 29.5783 20.4754 29.6779 20.5065 29.7715C20.5376 29.865 20.5894 29.9497 20.6579 30.0191C20.7264 30.0884 20.8096 30.1404 20.901 30.171C20.9924 30.2015 21.0895 30.2097 21.1846 30.195L23.0089 29.9125C23.2707 29.8721 23.5131 29.7465 23.7004 29.5542L32.6041 20.4007C32.9523 20.0427 33.1479 19.5572 33.1479 19.051C33.1479 18.5448 32.9523 18.0593 32.6041 17.7013L32.6048 17.7ZM15.0238 23.0455C15.2701 23.0455 15.5063 23.146 15.6804 23.325C15.8545 23.504 15.9524 23.7468 15.9524 24C15.9524 24.2532 15.8545 24.496 15.6804 24.675C15.5063 24.854 15.2701 24.9545 15.0238 24.9545H11.9286C11.6823 24.9545 11.4461 24.854 11.272 24.675C11.0978 24.496 11 24.2532 11 24C11 23.7468 11.0978 23.504 11.272 23.325C11.4461 23.146 11.6823 23.0455 11.9286 23.0455H15.0238ZM15.0238 15.0909C15.2701 15.0909 15.5063 15.1915 15.6804 15.3705C15.8545 15.5495 15.9524 15.7923 15.9524 16.0455C15.9524 16.2986 15.8545 16.5414 15.6804 16.7204C15.5063 16.8994 15.2701 17 15.0238 17H11.9286C11.6823 17 11.4461 16.8994 11.272 16.7204C11.0978 16.5414 11 16.2986 11 16.0455C11 15.7923 11.0978 15.5495 11.272 15.3705C11.4461 15.1915 11.6823 15.0909 11.9286 15.0909H15.0238Z" fill="white" fill-opacity="0.85"/>
<defs>
<linearGradient id="paint0_linear_22_354" x1="24" y1="48" x2="24" y2="1.78814e-07" gradientUnits="userSpaceOnUse">
<stop stop-color="#B75ED8"/>
<stop offset="1" stop-color="#F4B7E2"/>
</linearGradient>
<linearGradient id="paint1_linear_22_354" x1="24" y1="48" x2="24" y2="1.78814e-07" gradientUnits="userSpaceOnUse">
<stop stop-color="#1F8BD7"/>
<stop offset="1" stop-color="#45EFAD"/>
</linearGradient>
</defs>
</svg>
