<svg width="48" height="69" viewBox="0 0 48 69" fill="none" xmlns="http://www.w3.org/2000/svg">
<rect width="48" height="48" rx="16" fill="url(#paint0_linear_22_343)"/>
<mask id="mask0_22_343" style="mask-type:alpha" maskUnits="userSpaceOnUse" x="0" y="0" width="48" height="48">
<rect width="48" height="48" rx="16" fill="url(#paint1_linear_22_343)"/>
</mask>
<g mask="url(#mask0_22_343)">
<circle cx="3.5" cy="50.5" r="17.5" fill="white" fill-opacity="0.2"/>
<circle cx="41" cy="4" r="10" fill="white" fill-opacity="0.2"/>
</g>
<path d="M5.09766 67.334C7.30859 67.3652 9.55469 67.3457 11.8359 67.2754C11.7031 67.5801 11.5781 67.8887 11.4609 68.2012C9.02344 68.2324 6.85156 68.2324 4.94531 68.2012C3.71875 68.1699 2.79297 67.709 2.16797 66.8184C1.69922 67.2246 1.20703 67.7402 0.691406 68.3652L0.1875 67.3809C0.640625 66.9668 1.16016 66.5137 1.74609 66.0215V62.0254H0.246094V61.1699H2.68359V66.1855C3.26172 66.9121 4.06641 67.2949 5.09766 67.334ZM5.35547 57.4082L6.28125 57.7832C5.55469 59.2676 4.81641 60.6895 4.06641 62.0488C4.77734 63.2988 5.53906 64.6621 6.35156 66.1387L5.48438 66.6309C4.71875 65.0215 3.92578 63.498 3.10547 62.0605C4.07422 60.2715 4.82422 58.7207 5.35547 57.4082ZM7.80469 57.5137L8.73047 57.8887C8.13672 59.1074 7.41016 60.4941 6.55078 62.0488C7.25391 63.2598 8 64.5879 8.78906 66.0332L7.92188 66.5254C7.13281 64.8848 6.35547 63.4004 5.58984 62.0723C6.53516 60.3223 7.27344 58.8027 7.80469 57.5137ZM10.3125 57.5371L11.2383 57.9121C10.6133 59.1699 9.89453 60.5449 9.08203 62.0371C9.82422 63.3496 10.5703 64.6738 11.3203 66.0098L10.4531 66.502C9.79688 65.0957 9.01953 63.6074 8.12109 62.0371C9.08984 60.2324 9.82031 58.7324 10.3125 57.5371ZM1.48828 57.1504C1.97266 57.7363 2.57031 58.4902 3.28125 59.4121L2.4375 59.9629C1.78125 58.9941 1.22656 58.2285 0.773438 57.666L1.48828 57.1504ZM12.5742 58.2637H17.5781V57.0098H18.4102V58.2637H23.4844V59.0488H19.1426C20.377 59.9902 21.9375 60.7012 23.8242 61.1816C23.6211 61.4863 23.4414 61.7637 23.2852 62.0137C22.8633 61.8691 22.457 61.7129 22.0664 61.5449V66.6309H21.1758V66.1035H14.8594V66.6426H13.9688V61.6035C13.5703 61.7871 13.1523 61.9629 12.7148 62.1309C12.5508 61.8887 12.3672 61.6387 12.1641 61.3809C14.1797 60.7441 15.7246 59.9668 16.7988 59.0488H12.5742V58.2637ZM12.293 67.2637H23.707V68.1074H12.293V67.2637ZM17.5781 61.252V59.2422C16.6797 60.1094 15.5195 60.877 14.0977 61.5449H22.0605C20.6191 60.9316 19.4023 60.1719 18.4102 59.2656V61.252H17.5781ZM14.8594 65.2949H21.1758V64.2168H14.8594V65.2949ZM21.1758 62.3535H14.8594V63.4199H21.1758V62.3535ZM33.5625 60.1738C34.2188 61.0566 34.8906 62.0527 35.5781 63.1621C35.3047 63.3184 35.0156 63.4941 34.7109 63.6895C34.5156 63.3574 34.3281 63.0391 34.1484 62.7344C33.7852 62.7578 33.4102 62.7793 33.0234 62.7988V66.7715C33.0234 67.248 33.1992 67.4863 33.5508 67.4863H34.125C34.5078 67.4863 34.7266 67.291 34.7812 66.9004C34.8438 66.4316 34.8828 65.9238 34.8984 65.377C35.1562 65.4863 35.4688 65.5996 35.8359 65.7168C35.7734 66.3965 35.707 66.9238 35.6367 67.2988C35.5273 67.9785 35.1172 68.3184 34.4062 68.3184H33.3984C32.5469 68.3184 32.1211 67.8301 32.1211 66.8535V62.8516C31.6836 62.875 31.2305 62.9023 30.7617 62.9336C30.6992 64.6328 30.4805 65.8184 30.1055 66.4902C29.6602 67.3496 28.8281 68.0605 27.6094 68.623C27.4375 68.3809 27.2383 68.1191 27.0117 67.8379C28.1445 67.377 28.9023 66.7715 29.2852 66.0215C29.6367 65.4238 29.8262 64.4141 29.8535 62.9922C29.6934 63.0039 29.5312 63.0137 29.3672 63.0215C29.0312 63.0527 28.7188 63.1035 28.4297 63.1738L28.0312 62.2598C28.3672 62.1191 28.6367 61.9316 28.8398 61.6973C29.4258 60.998 29.9766 60.2363 30.4922 59.4121H27.9375V58.5801H31.6758C31.3828 58.1309 31.1055 57.7324 30.8438 57.3848L31.6172 56.9043C31.9141 57.2715 32.2461 57.709 32.6133 58.2168L32.0566 58.5801H35.625V59.4121H30.8672L31.5117 59.6934C30.8633 60.5684 30.2266 61.373 29.6016 62.1074C31.0742 62.0566 32.4277 62.0039 33.6621 61.9492C33.3652 61.4727 33.082 61.0371 32.8125 60.6426L33.5625 60.1738ZM25.6758 64.123C26.3008 64.0371 27.1016 63.9199 28.0781 63.7715C28.0312 64.084 27.9922 64.373 27.9609 64.6387C26.9844 64.7715 25.8672 64.9395 24.6094 65.1426L24.4219 64.2988C24.9102 63.7988 25.4902 62.9844 26.1621 61.8555C25.3496 61.9102 24.7656 61.9512 24.4102 61.9785L24.1875 61.1816C24.875 60.2754 25.6172 58.8926 26.4141 57.0332L27.3047 57.3848C26.5469 58.8691 25.8555 60.1113 25.2305 61.1113C25.7422 61.1035 26.2031 61.0918 26.6133 61.0762C26.8477 60.6582 27.0938 60.2051 27.3516 59.7168L28.2305 60.1035C27.3398 61.6582 26.4883 62.998 25.6758 64.123ZM24.1523 66.584C25.4492 66.334 26.7891 66.0527 28.1719 65.7402C28.1406 66.1465 28.125 66.4277 28.125 66.584C26.7109 66.8965 25.4766 67.1934 24.4219 67.4746L24.1523 66.584ZM39.9375 61.0879H43.3477V57.0566H44.3555V61.0879H47.7891V61.9316H44.3555V68.541H43.3477V61.9316H39.9375V61.0879ZM41.0156 65.3066C41.0391 65.7129 41.0664 66.0527 41.0977 66.3262C39.8477 67.1074 38.8164 67.7871 38.0039 68.3652L37.4414 67.5684C37.7148 67.334 37.8516 66.9785 37.8516 66.502V61.8613H36.1875V61.0176H38.7891V66.7129C39.4688 66.2988 40.2109 65.8301 41.0156 65.3066ZM37.3828 57.209C38.2344 58.084 38.8516 58.7324 39.2344 59.1543L38.4141 59.8457C37.9219 59.1973 37.3398 58.5254 36.668 57.8301L37.3828 57.209Z" fill="black" fill-opacity="0.85"/>
<path d="M15.428 35.852C14.7905 35.8574 14.1769 35.6097 13.7217 35.1633C13.2666 34.7169 13.007 34.1083 13 33.4708V11.3813C13.007 10.7438 13.2666 10.1352 13.7217 9.68881C14.1769 9.24243 14.7905 8.99475 15.428 9.00008H26.264V10.9427H15.428C15.3127 10.9444 15.2027 10.9913 15.1216 11.0734C15.0406 11.1554 14.995 11.266 14.9947 11.3813V33.4708C14.995 33.5861 15.0406 33.6967 15.1216 33.7787C15.2027 33.8608 15.3127 33.9077 15.428 33.9095V35.852ZM32.192 12.0893H17.5333C17.1849 12.0735 16.8441 12.1949 16.5841 12.4275C16.3242 12.66 16.1657 12.9852 16.1427 13.3332V35.7547C16.1657 36.1027 16.3242 36.4279 16.5841 36.6604C16.8441 36.893 17.1849 37.0144 17.5333 36.9986H35.6093C35.9578 37.0144 36.2985 36.893 36.5585 36.6604C36.8185 36.4279 36.977 36.1027 37 35.7547V16.8343L32.192 12.0893ZM23.0973 33.3988C23.0965 33.4634 23.0829 33.5272 23.0573 33.5866C23.0318 33.646 22.9948 33.6997 22.9485 33.7448C22.9022 33.7898 22.8475 33.8253 22.7875 33.8492C22.7274 33.8732 22.6633 33.885 22.5987 33.8841H20.8133C20.7487 33.885 20.6846 33.8732 20.6245 33.8492C20.5645 33.8253 20.5098 33.7898 20.4635 33.7448C20.4172 33.6997 20.3802 33.646 20.3547 33.5866C20.3291 33.5272 20.3155 33.4634 20.3147 33.3988V30.6336C20.3155 30.569 20.3291 30.5052 20.3547 30.4459C20.3802 30.3865 20.4172 30.3328 20.4635 30.2877C20.5098 30.2426 20.5645 30.2071 20.6245 30.1832C20.6846 30.1593 20.7487 30.1474 20.8133 30.1483H22.6C22.6646 30.1474 22.7288 30.1593 22.7888 30.1832C22.8488 30.2071 22.9036 30.2426 22.9499 30.2877C22.9962 30.3328 23.0331 30.3865 23.0587 30.4459C23.0842 30.5052 23.0978 30.569 23.0987 30.6336V33.3988H23.0973ZM27.9667 33.4842C27.9635 33.592 27.9182 33.6943 27.8404 33.7691C27.7626 33.8439 27.6586 33.8852 27.5507 33.8841H25.5947C25.4869 33.8849 25.383 33.8435 25.3053 33.7688C25.2276 33.694 25.1821 33.5919 25.1787 33.4842V20.5875C25.1821 20.4797 25.2276 20.3776 25.3053 20.3029C25.383 20.2282 25.4869 20.1868 25.5947 20.1875H27.5507C27.6585 20.1868 27.7623 20.2282 27.84 20.3029C27.9177 20.3776 27.9632 20.4797 27.9667 20.5875V33.4828V33.4842ZM32.832 33.5908C32.8296 33.6702 32.796 33.7454 32.7387 33.8002C32.6813 33.8551 32.6047 33.8852 32.5253 33.8841H30.3547C30.3149 33.8847 30.2755 33.8774 30.2385 33.8626C30.2016 33.8479 30.1679 33.8261 30.1395 33.7983C30.111 33.7706 30.0883 33.7375 30.0726 33.701C30.0569 33.6645 30.0485 33.6252 30.048 33.5855V26.7098C30.0485 26.6701 30.0569 26.6308 30.0726 26.5943C30.0883 26.5578 30.111 26.5247 30.1395 26.497C30.1679 26.4693 30.2016 26.4474 30.2385 26.4327C30.2755 26.418 30.3149 26.4107 30.3547 26.4112H32.524C32.6042 26.4105 32.6814 26.4415 32.7388 26.4974C32.7963 26.5533 32.8293 26.6297 32.8307 26.7098V33.5908H32.832Z" fill="white" fill-opacity="0.85"/>
<defs>
<linearGradient id="paint0_linear_22_343" x1="24" y1="48" x2="24" y2="1.78814e-07" gradientUnits="userSpaceOnUse">
<stop stop-color="#FC7104"/>
<stop offset="1" stop-color="#FEC702"/>
</linearGradient>
<linearGradient id="paint1_linear_22_343" x1="24" y1="48" x2="24" y2="1.78814e-07" gradientUnits="userSpaceOnUse">
<stop stop-color="#1F8BD7"/>
<stop offset="1" stop-color="#45EFAD"/>
</linearGradient>
</defs>
</svg>
