<svg width="60" height="69" viewBox="0 0 60 69" fill="none" xmlns="http://www.w3.org/2000/svg">
<rect x="6" width="48" height="48" rx="16" fill="url(#paint0_linear_22_300)"/>
<mask id="mask0_22_300" style="mask-type:alpha" maskUnits="userSpaceOnUse" x="6" y="0" width="48" height="48">
<rect x="6" width="48" height="48" rx="16" fill="url(#paint1_linear_22_300)"/>
</mask>
<g mask="url(#mask0_22_300)">
<circle cx="9.5" cy="50.5" r="17.5" fill="white" fill-opacity="0.2"/>
<circle cx="47" cy="4" r="10" fill="white" fill-opacity="0.2"/>
</g>
<path d="M0.996094 59.7402L1.58203 59.2246C1.86328 59.4746 2.13281 59.7246 2.39062 59.9746L3.63281 58.4629H0.328125V57.6426H4.71094V58.4629L2.97656 60.5605C3.10938 60.7012 3.23828 60.8379 3.36328 60.9707L2.89453 61.3809H5.02734V62.166C4.90234 62.7676 4.70703 63.4629 4.44141 64.252C4.19922 64.166 3.92969 64.0762 3.63281 63.9824C3.82812 63.4902 4 62.8965 4.14844 62.2012H2.97656V67.1348C2.97656 68.0254 2.53906 68.4707 1.66406 68.4707H0.421875C0.382812 68.1895 0.328125 67.873 0.257812 67.5215C0.648438 67.5684 1.04297 67.5918 1.44141 67.5918C1.87891 67.5918 2.09766 67.3418 2.09766 66.8418V62.2012H0.210938V61.3809H2.51953C2.01172 60.7715 1.50391 60.2246 0.996094 59.7402ZM5.56641 60.0332H7.54688L7.83984 58.4277H5.14453V57.6074H11.8008V58.4277H8.78906L8.44922 60.0332H11.2617V65.7988H10.4062V60.8418H6.42188V65.7988H5.56641V60.0332ZM7.95703 61.3223H8.82422V63.0684C8.82422 63.9824 8.70703 64.7676 8.47266 65.4238C9.69922 66.2441 10.8164 67.0449 11.8242 67.8262L11.1797 68.5879C10.2266 67.7754 9.20312 66.9785 8.10938 66.1973C8.03125 66.3145 7.95312 66.4277 7.875 66.5371C7.24219 67.3418 6.25 68.0566 4.89844 68.6816C4.64844 68.3613 4.42969 68.1035 4.24219 67.9082C5.64062 67.3301 6.62109 66.6699 7.18359 65.9277C7.69922 65.2559 7.95703 64.2832 7.95703 63.0098V61.3223ZM14.0039 66.2559H21.9375V68.623H21.1406V68.2598H14.8008V68.623H14.0039V66.2559ZM12.293 60.5254C12.8711 59.9863 13.332 59.3457 13.6758 58.6035L14.3672 58.7676C14.3203 58.8574 14.2734 58.9434 14.2266 59.0254H18.0117C17.957 59.9316 17.9062 60.6738 17.8594 61.252C17.7969 62.0254 17.4336 62.4121 16.7695 62.4121C16.4648 62.4121 16.1367 62.4043 15.7852 62.3887C15.75 62.2441 15.7148 62.084 15.6797 61.9082H14.1094V62.2598H13.4531V60.2676C13.2266 60.5801 12.9961 60.8574 12.7617 61.0996C12.6367 60.9121 12.4805 60.7207 12.293 60.5254ZM18.375 59.7402C19.0547 58.959 19.5938 58.0371 19.9922 56.9746L20.7773 57.1738C20.6289 57.5137 20.4746 57.8418 20.3145 58.1582H23.6836V58.8145H22.793C22.5586 59.7402 22.2051 60.4785 21.7324 61.0293C22.2559 61.3691 22.918 61.6504 23.7188 61.873C23.6406 61.9668 23.4766 62.2051 23.2266 62.5879C22.3984 62.291 21.7168 61.9492 21.1816 61.5625C20.6855 61.9609 20.0508 62.3262 19.2773 62.6582C19.1523 62.4316 18.9922 62.2051 18.7969 61.9785C19.5117 61.7129 20.1094 61.4043 20.5898 61.0527C20.1641 60.6113 19.8262 60.0762 19.5762 59.4473C19.3574 59.7832 19.1289 60.0996 18.8906 60.3965C18.7422 60.1855 18.5703 59.9668 18.375 59.7402ZM12.3867 62.8691H17.9297C17.8125 62.6035 17.6953 62.3574 17.5781 62.1309L18.3164 61.8496C18.4648 62.1582 18.6152 62.498 18.7676 62.8691H23.707V63.4785H12.3867V62.8691ZM12.3164 57.7012H14.1914V56.9863H14.918V57.7012H16.4297V56.9746H17.1562V57.7012H18.9141V58.2871H17.1562V58.709H16.4297V58.2871H14.918V58.6855H14.1914V58.2871H12.3164V57.7012ZM21.1406 66.8418H14.8008V67.6738H21.1406V66.8418ZM14.0625 65.1309H21.8906V65.6816H14.0625V65.1309ZM14.0391 64.0293H21.8438V64.5801H14.0391V64.0293ZM13.5176 60.1738H16.2539V61.7441C16.3672 61.752 16.4727 61.7559 16.5703 61.7559C16.9141 61.7559 17.1055 61.5488 17.1445 61.1348C17.1914 60.666 17.2266 60.1426 17.25 59.5645H13.916C13.7832 59.7793 13.6504 59.9824 13.5176 60.1738ZM21.1465 60.5664C21.541 60.1289 21.832 59.5449 22.0195 58.8145H20.0625C20.3125 59.5332 20.6738 60.1172 21.1465 60.5664ZM15.5977 61.3926V60.6895H14.1094V61.3926H15.5977ZM24.2344 65.2949H29.543V63.9707H26.2969V64.5215H25.4062V58.8379H27.8379C27.4629 58.4004 27.0586 57.9512 26.625 57.4902L27.293 56.9395C27.8711 57.4941 28.3789 58.0059 28.8164 58.4746L28.3828 58.8379H31.1309C31.5605 58.2676 31.9961 57.6465 32.4375 56.9746L33.375 57.4785C32.9727 57.9668 32.584 58.4199 32.209 58.8379H34.6055V64.5215H33.7148V63.9707H30.457V65.2949H35.7656V66.1387H30.457V68.6113H29.543V66.1387H24.2344V65.2949ZM30.457 63.1504H33.7148V61.791H30.457V63.1504ZM26.2969 63.1504H29.543V61.791H26.2969V63.1504ZM33.7148 59.6582H30.457V60.9941H33.7148V59.6582ZM26.2969 60.9941H29.543V59.6582H26.2969V60.9941ZM40.5469 57.1621L40.3945 57.4082C41.3867 58.3223 42.3398 59.248 43.2539 60.1855L42.6094 60.9121C41.7734 59.9824 40.8828 59.0645 39.9375 58.1582C39.1719 59.3691 38.3828 60.3809 37.5703 61.1934H42.3867C42.3398 62.2793 42.3008 63.041 42.2695 63.4785C42.2305 64.6426 41.6992 65.2246 40.6758 65.2246C40.2617 65.2246 39.7539 65.2129 39.1523 65.1895C39.1055 64.8457 39.0508 64.5332 38.9883 64.252C39.5117 64.3379 40.0117 64.3848 40.4883 64.3926C41.0508 64.4004 41.3516 64.0449 41.3906 63.3262C41.4141 62.9512 41.4375 62.5137 41.4609 62.0137H38.3555V66.7129C38.3555 67.1504 38.5898 67.3691 39.0586 67.3691H40.9805C41.5977 67.3691 41.9453 67.166 42.0234 66.7598C42.1172 66.3848 42.1875 65.916 42.2344 65.3535C42.5391 65.4785 42.8477 65.5918 43.1602 65.6934C43.082 66.209 42.9844 66.6855 42.8672 67.123C42.6719 67.8496 42.1211 68.2129 41.2148 68.2129H38.8828C37.9219 68.2129 37.4414 67.7363 37.4414 66.7832V61.334C37.1914 61.5684 36.9453 61.7832 36.7031 61.9785C36.4688 61.5957 36.2891 61.3145 36.1641 61.1348C37.4453 60.1582 38.5469 58.834 39.4688 57.1621H40.5469ZM46.1602 57.2441H47.0977V66.9824C47.0977 67.9355 46.625 68.416 45.6797 68.4238C45.3516 68.4238 44.7383 68.4199 43.8398 68.4121C43.8008 68.0527 43.7383 67.6973 43.6523 67.3457C44.4805 67.416 45.0625 67.4512 45.3984 67.4512C45.9062 67.4512 46.1602 67.2012 46.1602 66.7012V57.2441ZM44.6133 65.5059H43.7109V58.2871H44.6133V65.5059ZM51.8906 65.1074H54.8906V64.0879H52.2891V63.3848H54.8906V62.3652H52.4531V61.6621H54.8906V60.6426H51.8438V59.916H54.8906V58.8965H52.4531V58.1934H54.8906V57.0449H55.7578V58.1934H58.4766V59.916H59.707V60.6426H58.4766V62.6816H57.6328V62.3652H55.7578V63.3848H58.7109V64.0879H55.7578V65.1074H59.25V65.8105H55.7578V67.0176H54.8906V65.8105H51.8906V65.1074ZM49.125 63.127C49.3594 64.0801 49.6875 64.8633 50.1094 65.4766C50.5273 64.6172 50.7891 63.627 50.8945 62.5059H48.5508V61.6504L50.707 58.9902H48.3164V58.1934H51.7852V58.9902L49.582 61.709H51.7734V62.4004C51.6289 63.8496 51.2754 65.1055 50.7129 66.168C51.5645 66.9062 52.8867 67.2793 54.6797 67.2871C56.1641 67.3184 57.8867 67.2988 59.8477 67.2285C59.7148 67.5488 59.5859 67.8574 59.4609 68.1543C57.6719 68.1465 55.9414 68.1387 54.2695 68.1309C52.5273 68.1309 51.1914 67.7246 50.2617 66.9121C49.8203 67.5527 49.2852 68.1113 48.6562 68.5879C48.5312 68.3613 48.3711 68.1074 48.1758 67.8262C48.7617 67.3809 49.2539 66.8613 49.6523 66.2676C49.1289 65.6035 48.6953 64.6543 48.3516 63.4199L49.125 63.127ZM55.7578 61.6621H57.6328V60.6426H55.7578V61.6621ZM57.6328 58.8965H55.7578V59.916H57.6328V58.8965Z" fill="black" fill-opacity="0.85"/>
<path d="M43.3064 30.7941H38.6169V25.7457C38.6169 25.3325 38.3045 25 37.9233 25H37.0767C36.6955 25 36.3831 25.3359 36.3831 25.7457V30.7975H31.6936C31.3124 30.7975 31 31.1334 31 31.5432V32.4568C31 32.87 31.3124 33.2025 31.6936 33.2025H36.3831V38.2543C36.3831 38.6675 36.6955 39 37.0767 39H37.9233C38.3045 39 38.6169 38.6641 38.6169 38.2543V33.2025H43.3064C43.6876 33.2025 44 32.8666 44 32.4568V31.5432C44 31.13 43.6876 30.7941 43.3064 30.7941Z" fill="white" fill-opacity="0.85"/>
<path d="M37.4997 23C38.0107 23 38.5119 23.043 39 23.1223V11.5289C39.0032 11.2347 38.7674 11 38.4791 11H23.2207V11.0066L19.0932 11.0165C17.9401 11.0198 17 11.9752 17 13.1388L17.0393 32.8843C17.0426 34.0512 17.986 35 19.1391 35L28.7272 34.9802C28.4684 34.124 28.3308 33.2149 28.3308 32.276C28.3276 27.1521 32.4354 23 37.4997 23ZM21.1962 16.3223H25.4547C26.3228 16.3223 27.0271 17.0331 27.0271 17.9124C27.0271 18.7917 26.3228 19.5025 25.4547 19.5025H21.1962C20.3282 19.5025 19.6239 18.7917 19.6239 17.9124C19.6239 17.0364 20.3282 16.3223 21.1962 16.3223ZM19.6239 24.0083C19.6239 23.1289 20.3282 22.4182 21.1962 22.4182H29.0613C29.9261 22.4182 30.6337 23.1289 30.6337 24.0083C30.6337 24.8876 29.9294 25.5983 29.0613 25.5983H21.1962C20.3282 25.5983 19.6239 24.8876 19.6239 24.0083Z" fill="white" fill-opacity="0.85"/>
<defs>
<linearGradient id="paint0_linear_22_300" x1="30" y1="48" x2="30" y2="1.78814e-07" gradientUnits="userSpaceOnUse">
<stop stop-color="#B75ED8"/>
<stop offset="1" stop-color="#F4B7E2"/>
</linearGradient>
<linearGradient id="paint1_linear_22_300" x1="30" y1="48" x2="30" y2="1.78814e-07" gradientUnits="userSpaceOnUse">
<stop stop-color="#1F8BD7"/>
<stop offset="1" stop-color="#45EFAD"/>
</linearGradient>
</defs>
</svg>
