<svg width="60" height="69" viewBox="0 0 60 69" fill="none" xmlns="http://www.w3.org/2000/svg">
<rect x="6" width="48" height="48" rx="16" fill="url(#paint0_linear_22_284)"/>
<mask id="mask0_22_284" style="mask-type:alpha" maskUnits="userSpaceOnUse" x="6" y="0" width="48" height="48">
<rect x="6" width="48" height="48" rx="16" fill="url(#paint1_linear_22_284)"/>
</mask>
<g mask="url(#mask0_22_284)">
<circle cx="9.5" cy="50.5" r="17.5" fill="white" fill-opacity="0.2"/>
<circle cx="47" cy="4" r="10" fill="white" fill-opacity="0.2"/>
</g>
<path d="M0.996094 59.7402L1.58203 59.2246C1.86328 59.4746 2.13281 59.7246 2.39062 59.9746L3.63281 58.4629H0.328125V57.6426H4.71094V58.4629L2.97656 60.5605C3.10938 60.7012 3.23828 60.8379 3.36328 60.9707L2.89453 61.3809H5.02734V62.166C4.90234 62.7676 4.70703 63.4629 4.44141 64.252C4.19922 64.166 3.92969 64.0762 3.63281 63.9824C3.82812 63.4902 4 62.8965 4.14844 62.2012H2.97656V67.1348C2.97656 68.0254 2.53906 68.4707 1.66406 68.4707H0.421875C0.382812 68.1895 0.328125 67.873 0.257812 67.5215C0.648438 67.5684 1.04297 67.5918 1.44141 67.5918C1.87891 67.5918 2.09766 67.3418 2.09766 66.8418V62.2012H0.210938V61.3809H2.51953C2.01172 60.7715 1.50391 60.2246 0.996094 59.7402ZM5.56641 60.0332H7.54688L7.83984 58.4277H5.14453V57.6074H11.8008V58.4277H8.78906L8.44922 60.0332H11.2617V65.7988H10.4062V60.8418H6.42188V65.7988H5.56641V60.0332ZM7.95703 61.3223H8.82422V63.0684C8.82422 63.9824 8.70703 64.7676 8.47266 65.4238C9.69922 66.2441 10.8164 67.0449 11.8242 67.8262L11.1797 68.5879C10.2266 67.7754 9.20312 66.9785 8.10938 66.1973C8.03125 66.3145 7.95312 66.4277 7.875 66.5371C7.24219 67.3418 6.25 68.0566 4.89844 68.6816C4.64844 68.3613 4.42969 68.1035 4.24219 67.9082C5.64062 67.3301 6.62109 66.6699 7.18359 65.9277C7.69922 65.2559 7.95703 64.2832 7.95703 63.0098V61.3223ZM14.0039 66.2559H21.9375V68.623H21.1406V68.2598H14.8008V68.623H14.0039V66.2559ZM12.293 60.5254C12.8711 59.9863 13.332 59.3457 13.6758 58.6035L14.3672 58.7676C14.3203 58.8574 14.2734 58.9434 14.2266 59.0254H18.0117C17.957 59.9316 17.9062 60.6738 17.8594 61.252C17.7969 62.0254 17.4336 62.4121 16.7695 62.4121C16.4648 62.4121 16.1367 62.4043 15.7852 62.3887C15.75 62.2441 15.7148 62.084 15.6797 61.9082H14.1094V62.2598H13.4531V60.2676C13.2266 60.5801 12.9961 60.8574 12.7617 61.0996C12.6367 60.9121 12.4805 60.7207 12.293 60.5254ZM18.375 59.7402C19.0547 58.959 19.5938 58.0371 19.9922 56.9746L20.7773 57.1738C20.6289 57.5137 20.4746 57.8418 20.3145 58.1582H23.6836V58.8145H22.793C22.5586 59.7402 22.2051 60.4785 21.7324 61.0293C22.2559 61.3691 22.918 61.6504 23.7188 61.873C23.6406 61.9668 23.4766 62.2051 23.2266 62.5879C22.3984 62.291 21.7168 61.9492 21.1816 61.5625C20.6855 61.9609 20.0508 62.3262 19.2773 62.6582C19.1523 62.4316 18.9922 62.2051 18.7969 61.9785C19.5117 61.7129 20.1094 61.4043 20.5898 61.0527C20.1641 60.6113 19.8262 60.0762 19.5762 59.4473C19.3574 59.7832 19.1289 60.0996 18.8906 60.3965C18.7422 60.1855 18.5703 59.9668 18.375 59.7402ZM12.3867 62.8691H17.9297C17.8125 62.6035 17.6953 62.3574 17.5781 62.1309L18.3164 61.8496C18.4648 62.1582 18.6152 62.498 18.7676 62.8691H23.707V63.4785H12.3867V62.8691ZM12.3164 57.7012H14.1914V56.9863H14.918V57.7012H16.4297V56.9746H17.1562V57.7012H18.9141V58.2871H17.1562V58.709H16.4297V58.2871H14.918V58.6855H14.1914V58.2871H12.3164V57.7012ZM21.1406 66.8418H14.8008V67.6738H21.1406V66.8418ZM14.0625 65.1309H21.8906V65.6816H14.0625V65.1309ZM14.0391 64.0293H21.8438V64.5801H14.0391V64.0293ZM13.5176 60.1738H16.2539V61.7441C16.3672 61.752 16.4727 61.7559 16.5703 61.7559C16.9141 61.7559 17.1055 61.5488 17.1445 61.1348C17.1914 60.666 17.2266 60.1426 17.25 59.5645H13.916C13.7832 59.7793 13.6504 59.9824 13.5176 60.1738ZM21.1465 60.5664C21.541 60.1289 21.832 59.5449 22.0195 58.8145H20.0625C20.3125 59.5332 20.6738 60.1172 21.1465 60.5664ZM15.5977 61.3926V60.6895H14.1094V61.3926H15.5977ZM24.2344 65.2949H29.543V63.9707H26.2969V64.5215H25.4062V58.8379H27.8379C27.4629 58.4004 27.0586 57.9512 26.625 57.4902L27.293 56.9395C27.8711 57.4941 28.3789 58.0059 28.8164 58.4746L28.3828 58.8379H31.1309C31.5605 58.2676 31.9961 57.6465 32.4375 56.9746L33.375 57.4785C32.9727 57.9668 32.584 58.4199 32.209 58.8379H34.6055V64.5215H33.7148V63.9707H30.457V65.2949H35.7656V66.1387H30.457V68.6113H29.543V66.1387H24.2344V65.2949ZM30.457 63.1504H33.7148V61.791H30.457V63.1504ZM26.2969 63.1504H29.543V61.791H26.2969V63.1504ZM33.7148 59.6582H30.457V60.9941H33.7148V59.6582ZM26.2969 60.9941H29.543V59.6582H26.2969V60.9941ZM37.6875 60.8184H41.543V59.5527H42.457V60.8184H46.3242V66.5605H45.457V66.0098H42.457V68.5645H41.543V66.0098H38.5547V66.5605H37.6875V60.8184ZM36.6445 58.3691H41.7656C41.5664 58.0449 41.3398 57.7051 41.0859 57.3496L41.8945 56.8691C42.2148 57.2754 42.4961 57.6621 42.7383 58.0293L42.1875 58.3691H47.3672V60.5605H46.4531V59.2129H37.5586V60.5605H36.6445V58.3691ZM42.457 65.1895H45.457V63.8066H42.457V65.1895ZM38.5547 65.1895H41.543V63.8066H38.5547V65.1895ZM45.457 61.6387H42.457V63.0098H45.457V61.6387ZM38.5547 63.0098H41.543V61.6387H38.5547V63.0098ZM55.7344 57.1621H56.6484V61.5098C57.5039 60.7715 58.2812 59.9902 58.9805 59.166L59.707 59.8223C58.6289 60.9277 57.6094 61.875 56.6484 62.6641V66.6777C56.6484 67.1465 56.8477 67.3809 57.2461 67.3809H57.9375C58.4062 67.3809 58.6758 67.166 58.7461 66.7363C58.8398 66.2598 58.9141 65.6035 58.9688 64.7676C59.2578 64.8926 59.5547 65.0059 59.8594 65.1074C59.7891 65.8418 59.707 66.4785 59.6133 67.0176C59.4727 67.8535 59.0234 68.2715 58.2656 68.2715H57.1289C56.1992 68.2715 55.7344 67.7949 55.7344 66.8418V57.1621ZM48.1523 63.4082C48.6797 63.2637 49.2344 63.0996 49.8164 62.916V60.1855H48.3047V59.3418H49.8164V57.0332H50.7305V59.3418H52.0078V60.1855H50.7305V62.6289C51.1289 62.4961 51.5391 62.3574 51.9609 62.2129C51.9375 62.5488 51.9219 62.8613 51.9141 63.1504C51.5352 63.291 51.1406 63.4336 50.7305 63.5781V67.1582C50.7305 67.9785 50.3633 68.4043 49.6289 68.4355C49.3164 68.4512 48.9531 68.4551 48.5391 68.4473C48.5078 68.1348 48.4609 67.8145 48.3984 67.4863C48.7578 67.5254 49.082 67.5449 49.3711 67.5449C49.668 67.5449 49.8164 67.3848 49.8164 67.0645V63.8887C49.3281 64.0527 48.8203 64.2207 48.293 64.3926L48.1523 63.4082ZM55.3945 65.6582C55.418 66.0098 55.4492 66.3379 55.4883 66.6426C54.4883 67.2598 53.7852 67.709 53.3789 67.9902C53.1523 68.1543 52.9609 68.3184 52.8047 68.4824L52.1836 67.7207C52.4336 67.4941 52.5586 67.1621 52.5586 66.7246V57.1621H53.4727V60.748H55.4062V61.6152H53.4727V66.8535C53.9961 66.5488 54.6367 66.1504 55.3945 65.6582Z" fill="black" fill-opacity="0.85"/>
<path d="M24.9444 10.8H20.5347C19.1389 10.8 18 11.9445 18 13.355V33.445C18 34.852 19.1354 36 20.5347 36H40.4653C41.8611 36 43 34.8555 43 33.445V13.355C43 11.948 41.8646 10.8 40.4653 10.8H36.0556V11.052C36.0556 12.459 34.9306 13.6 33.5347 13.6H27.4653C26.0729 13.6 24.9444 12.459 24.9444 11.052V10.8ZM36.9931 21.3105L30.4792 28.8425C30.3056 29.112 29.9583 29.301 29.5729 29.301C29.2708 29.301 28.9167 29.2205 28.6736 28.993L24.8125 25.6785C24.3021 25.1675 24.2535 24.436 24.6632 23.862C25.2118 23.295 25.9653 23.2565 26.4861 23.694L29.4132 26.186L35.0833 19.6165C35.5938 19.095 36.3472 19.06 36.8681 19.4975C37.3889 20.026 37.4271 20.789 36.9931 21.3105ZM26.3333 10.1C26.3333 8.9415 27.2569 8 28.4132 8H32.5833C33.7326 8 34.6632 8.931 34.6632 10.1C34.6632 11.2585 33.7396 12.2 32.5833 12.2H28.4132C27.2639 12.2 26.3333 11.269 26.3333 10.1Z" fill="white" fill-opacity="0.85"/>
<defs>
<linearGradient id="paint0_linear_22_284" x1="30" y1="48" x2="30" y2="1.78814e-07" gradientUnits="userSpaceOnUse">
<stop stop-color="#1F8BD7"/>
<stop offset="1" stop-color="#45EFAD"/>
</linearGradient>
<linearGradient id="paint1_linear_22_284" x1="30" y1="48" x2="30" y2="1.78814e-07" gradientUnits="userSpaceOnUse">
<stop stop-color="#1F8BD7"/>
<stop offset="1" stop-color="#45EFAD"/>
</linearGradient>
</defs>
</svg>
