<svg width="48" height="69" viewBox="0 0 48 69" fill="none" xmlns="http://www.w3.org/2000/svg">
<rect width="48" height="48" rx="16" fill="url(#paint0_linear_22_321)"/>
<mask id="mask0_22_321" style="mask-type:alpha" maskUnits="userSpaceOnUse" x="0" y="0" width="48" height="48">
<rect width="48" height="48" rx="16" fill="url(#paint1_linear_22_321)"/>
</mask>
<g mask="url(#mask0_22_321)">
<circle cx="3.5" cy="50.5" r="17.5" fill="white" fill-opacity="0.2"/>
<circle cx="41" cy="4" r="10" fill="white" fill-opacity="0.2"/>
</g>
<path d="M0.222656 67.6387C3.65234 66.8184 5.40234 64.9238 5.47266 61.9551C5.50391 61.0879 5.51562 60.4316 5.50781 59.9863H6.46875C6.45703 60.6035 6.43945 61.2285 6.41602 61.8613C7.06836 64.9043 8.875 66.7637 11.8359 67.4395C11.6484 67.6895 11.4297 68.0098 11.1797 68.4004C8.57031 67.5488 6.87891 65.9863 6.10547 63.7129C5.64062 66.0762 3.87109 67.6855 0.796875 68.541C0.570312 68.1348 0.378906 67.834 0.222656 67.6387ZM0.714844 58.6855H5.87695C5.59961 58.1895 5.33984 57.7715 5.09766 57.4316L5.94141 56.9512C6.16016 57.2637 6.45312 57.709 6.82031 58.2871L6.09961 58.6855H11.332V60.8066H10.3945V59.5527H1.65234V60.8066H0.714844V58.6855ZM1.32422 61.9902L1.99219 61.416C2.78125 62.2285 3.53516 63.0762 4.25391 63.959L3.51562 64.6152C2.89062 63.7871 2.16016 62.9121 1.32422 61.9902ZM7.69922 63.959C8.55078 63.1543 9.32031 62.3027 10.0078 61.4043L10.7695 62.002C9.97266 62.9473 9.16406 63.7988 8.34375 64.5566L7.69922 63.959ZM17.2617 68.4941H16.3711V62.5527H22.957V67.0762C22.957 67.9434 22.5625 68.3848 21.7734 68.4004C21.2578 68.4082 20.5938 68.4082 19.7812 68.4004C19.7422 68.1504 19.6836 67.8496 19.6055 67.498C20.3477 67.5449 20.9531 67.5684 21.4219 67.5684C21.8516 67.5684 22.0664 67.3809 22.0664 67.0059V66.373H17.2617V68.4941ZM15.6094 61.0996H19.1953V60.291H16.2422V59.5527H19.1953V58.7676H15.9141V58.0293H19.1953V56.9746H20.0859V58.0293H23.6016V58.7676H20.0859V59.5527H23.2734V60.291H20.0859V61.0996H23.8477V61.8379H15.6094V61.0996ZM13.7461 57.0801H14.5781V59.4648L15.0234 59.1426C15.4219 59.6113 15.7773 60.0449 16.0898 60.4434L15.4336 60.9238C15.1914 60.5684 14.9062 60.1758 14.5781 59.7461V68.5293H13.7461V57.0801ZM22.0664 63.3027H17.2617V64.1113H22.0664V63.3027ZM17.2617 65.6465H22.0664V64.8379H17.2617V65.6465ZM12.5977 59.752L13.3477 59.8457C13.2617 60.791 13.1211 61.7949 12.9258 62.8574C12.7461 62.8105 12.4922 62.7559 12.1641 62.6934C12.3359 61.9277 12.4805 60.9473 12.5977 59.752ZM27.4453 64.4395H31.0781V62.6934H28.0781V61.8262H31.0781V60.0918H27.75V59.2246H31.9746C32.6426 58.377 33.1523 57.627 33.5039 56.9746L34.4414 57.5488C34.0742 58.002 33.6035 58.5605 33.0293 59.2246H35.5078V60.0918H32.0391V61.8262H35.1797V62.6934H32.0391V64.4395H35.8125V65.3066H32.0391V68.5645H31.0781V65.3066H27.4453V64.4395ZM28.0078 65.7285C28.0156 65.9863 28.043 66.3223 28.0898 66.7363C26.9961 67.4238 26.2188 67.9629 25.7578 68.3535L25.207 67.5684C25.4727 67.3496 25.6055 67.0098 25.6055 66.5488V61.9082H24.1875V61.0645H26.5078V66.7246C26.9688 66.4277 27.4688 66.0957 28.0078 65.7285ZM25.2773 57.2324C25.9727 57.9355 26.5898 58.584 27.1289 59.1777L26.3086 59.8691C25.7461 59.127 25.1758 58.4551 24.5977 57.8535L25.2773 57.2324ZM28.6758 57.5254L29.3789 56.998C29.8789 57.5527 30.3359 58.0879 30.75 58.6035L29.9414 59.166C29.543 58.5957 29.1211 58.0488 28.6758 57.5254ZM41.2617 68.4941H40.3711V62.5527H46.957V67.0762C46.957 67.9434 46.5625 68.3848 45.7734 68.4004C45.2578 68.4082 44.5938 68.4082 43.7812 68.4004C43.7422 68.1504 43.6836 67.8496 43.6055 67.498C44.3477 67.5449 44.9531 67.5684 45.4219 67.5684C45.8516 67.5684 46.0664 67.3809 46.0664 67.0059V66.373H41.2617V68.4941ZM39.6094 61.0996H43.1953V60.291H40.2422V59.5527H43.1953V58.7676H39.9141V58.0293H43.1953V56.9746H44.0859V58.0293H47.6016V58.7676H44.0859V59.5527H47.2734V60.291H44.0859V61.0996H47.8477V61.8379H39.6094V61.0996ZM37.7461 57.0801H38.5781V59.4648L39.0234 59.1426C39.4219 59.6113 39.7773 60.0449 40.0898 60.4434L39.4336 60.9238C39.1914 60.5684 38.9062 60.1758 38.5781 59.7461V68.5293H37.7461V57.0801ZM46.0664 63.3027H41.2617V64.1113H46.0664V63.3027ZM41.2617 65.6465H46.0664V64.8379H41.2617V65.6465ZM36.5977 59.752L37.3477 59.8457C37.2617 60.791 37.1211 61.7949 36.9258 62.8574C36.7461 62.8105 36.4922 62.7559 36.1641 62.6934C36.3359 61.9277 36.4805 60.9473 36.5977 59.752Z" fill="black" fill-opacity="0.85"/>
<path d="M16.0007 12.0003V14.2507C16.0008 14.7149 16.1851 15.16 16.5133 15.4882C16.8415 15.8164 17.2866 16.0007 17.7507 16.0007H30.2493C30.7134 16.0007 31.1585 15.8164 31.4867 15.4882C31.8149 15.16 31.9993 14.7149 31.9993 14.2507V12.0003H34.5C35.4283 12.0003 36.3185 12.369 36.9749 13.0254C37.6313 13.6818 38 14.572 38 15.5002V34.5C38 35.4283 37.6313 36.3185 36.9749 36.9749C36.3185 37.6313 35.4283 38 34.5 38H13.5C12.5717 38 11.6815 37.6313 11.0251 36.9749C10.3687 36.3185 10 35.4283 10 34.5V15.5002C10 14.572 10.3687 13.6818 11.0251 13.0254C11.6815 12.369 12.5717 12.0003 13.5 12.0003H16.0007ZM16.0007 21.9998H31.9993V19.9995H16.0025V21.9998H16.0007ZM16.0007 28.0005H31.9993V26.0002H16.0025V28.0005H16.0007ZM16.0007 33.9995H31.9993V31.9993H16.0025V33.9995H16.0007ZM19.7475 10H28.249C28.7131 10 29.1582 10.1844 29.4864 10.5126C29.8146 10.8408 29.999 11.2859 29.999 11.75V12.2505C29.999 12.7146 29.8146 13.1597 29.4864 13.4879C29.1582 13.8161 28.7131 14.0005 28.249 14.0005H19.7475C19.2834 14.0005 18.8383 13.8161 18.5101 13.4879C18.1819 13.1597 17.9975 12.7146 17.9975 12.2505V11.75C17.9975 11.2859 18.1819 10.8408 18.5101 10.5126C18.8383 10.1844 19.2834 10 19.7475 10V10Z" fill="white" fill-opacity="0.85"/>
<defs>
<linearGradient id="paint0_linear_22_321" x1="24" y1="48" x2="24" y2="1.78814e-07" gradientUnits="userSpaceOnUse">
<stop stop-color="#FC7104"/>
<stop offset="1" stop-color="#FEC702"/>
</linearGradient>
<linearGradient id="paint1_linear_22_321" x1="24" y1="48" x2="24" y2="1.78814e-07" gradientUnits="userSpaceOnUse">
<stop stop-color="#1F8BD7"/>
<stop offset="1" stop-color="#45EFAD"/>
</linearGradient>
</defs>
</svg>
