<svg width="48" height="69" viewBox="0 0 48 69" fill="none" xmlns="http://www.w3.org/2000/svg">
<rect width="48" height="48" rx="16" fill="url(#paint0_linear_22_312)"/>
<mask id="mask0_22_312" style="mask-type:alpha" maskUnits="userSpaceOnUse" x="0" y="0" width="48" height="48">
<rect width="48" height="48" rx="16" fill="url(#paint1_linear_22_312)"/>
</mask>
<g mask="url(#mask0_22_312)">
<circle cx="3.5" cy="50.5" r="17.5" fill="white" fill-opacity="0.2"/>
<circle cx="41" cy="4" r="10" fill="white" fill-opacity="0.2"/>
</g>
<path d="M0.222656 67.6387C3.65234 66.8184 5.40234 64.9238 5.47266 61.9551C5.50391 61.0879 5.51562 60.4316 5.50781 59.9863H6.46875C6.45703 60.6035 6.43945 61.2285 6.41602 61.8613C7.06836 64.9043 8.875 66.7637 11.8359 67.4395C11.6484 67.6895 11.4297 68.0098 11.1797 68.4004C8.57031 67.5488 6.87891 65.9863 6.10547 63.7129C5.64062 66.0762 3.87109 67.6855 0.796875 68.541C0.570312 68.1348 0.378906 67.834 0.222656 67.6387ZM0.714844 58.6855H5.87695C5.59961 58.1895 5.33984 57.7715 5.09766 57.4316L5.94141 56.9512C6.16016 57.2637 6.45312 57.709 6.82031 58.2871L6.09961 58.6855H11.332V60.8066H10.3945V59.5527H1.65234V60.8066H0.714844V58.6855ZM1.32422 61.9902L1.99219 61.416C2.78125 62.2285 3.53516 63.0762 4.25391 63.959L3.51562 64.6152C2.89062 63.7871 2.16016 62.9121 1.32422 61.9902ZM7.69922 63.959C8.55078 63.1543 9.32031 62.3027 10.0078 61.4043L10.7695 62.002C9.97266 62.9473 9.16406 63.7988 8.34375 64.5566L7.69922 63.959ZM17.2617 68.4941H16.3711V62.5527H22.957V67.0762C22.957 67.9434 22.5625 68.3848 21.7734 68.4004C21.2578 68.4082 20.5938 68.4082 19.7812 68.4004C19.7422 68.1504 19.6836 67.8496 19.6055 67.498C20.3477 67.5449 20.9531 67.5684 21.4219 67.5684C21.8516 67.5684 22.0664 67.3809 22.0664 67.0059V66.373H17.2617V68.4941ZM15.6094 61.0996H19.1953V60.291H16.2422V59.5527H19.1953V58.7676H15.9141V58.0293H19.1953V56.9746H20.0859V58.0293H23.6016V58.7676H20.0859V59.5527H23.2734V60.291H20.0859V61.0996H23.8477V61.8379H15.6094V61.0996ZM13.7461 57.0801H14.5781V59.4648L15.0234 59.1426C15.4219 59.6113 15.7773 60.0449 16.0898 60.4434L15.4336 60.9238C15.1914 60.5684 14.9062 60.1758 14.5781 59.7461V68.5293H13.7461V57.0801ZM22.0664 63.3027H17.2617V64.1113H22.0664V63.3027ZM17.2617 65.6465H22.0664V64.8379H17.2617V65.6465ZM12.5977 59.752L13.3477 59.8457C13.2617 60.791 13.1211 61.7949 12.9258 62.8574C12.7461 62.8105 12.4922 62.7559 12.1641 62.6934C12.3359 61.9277 12.4805 60.9473 12.5977 59.752ZM27.6797 65.5762H28.8047V59.6816H31.3477V58.8027H28.0664V58.0762H31.3477V57.0684H32.1914V58.0762H35.5547V58.8027H32.1914V59.6816H34.7109V65.5762H35.8125V66.3027H27.6797V65.5762ZM24.1523 65.6465C24.707 65.4902 25.2773 65.3145 25.8633 65.1191V60.9473H24.3164V60.1152H25.8633V57.1855H26.707V60.1152H28.1016V60.9473H26.707V64.8496C27.1836 64.6855 27.6758 64.5098 28.1836 64.3223C28.207 64.666 28.2383 64.959 28.2773 65.2012C27.0664 65.584 25.8242 66.0293 24.5508 66.5371L24.1523 65.6465ZM29.625 65.5762H33.8906V64.7559H29.625V65.5762ZM29.625 62.6348H33.8906V61.8262H29.625V62.6348ZM33.8906 60.3613H29.625V61.1699H33.8906V60.3613ZM29.625 64.0996H33.8906V63.291H29.625V64.0996ZM27.4219 67.9668C28.4922 67.5762 29.5273 67.0684 30.5273 66.4434L31.0898 67.0645C30.0742 67.6895 29.0273 68.2285 27.9492 68.6816C27.793 68.4395 27.6172 68.2012 27.4219 67.9668ZM32.3672 67.0762L32.8242 66.4434C34.0352 66.9746 35.0664 67.4629 35.918 67.9082L35.4492 68.6465C34.5664 68.1465 33.5391 67.623 32.3672 67.0762ZM40.6289 57.6543H47.1094C47.0703 58.4512 47.0352 59.0527 47.0039 59.459C46.9492 60.4277 46.3789 60.9121 45.293 60.9121C44.8398 60.9121 44.1797 60.9043 43.3125 60.8887C43.2578 60.5918 43.1953 60.2793 43.125 59.9512C43.9844 60.0293 44.6719 60.0684 45.1875 60.0684C45.7734 60.0684 46.0859 59.8301 46.125 59.3535C46.1484 59.1035 46.1641 58.8105 46.1719 58.4746H41.543V61.8262H47.1797V62.6348C46.8008 64.0332 46.166 65.2129 45.2754 66.1738C45.9902 66.7559 46.8516 67.2207 47.8594 67.5684C47.5859 67.9121 47.3594 68.2012 47.1797 68.4355C46.1797 67.9551 45.3223 67.4082 44.6074 66.7949C43.877 67.4004 43.0352 67.9785 42.082 68.5293C41.9414 68.2949 41.7695 68.0293 41.5664 67.7324C42.4883 67.2324 43.2832 66.709 43.9512 66.1621C43.1465 65.2598 42.5801 64.0879 42.252 62.6465H41.543V68.6113H40.6289V57.6543ZM36.1758 63.2559C36.7656 63.0918 37.3359 62.9297 37.8867 62.7695V60.2324H36.3281V59.4238H37.8867V57.1387H38.7891V59.4238H40.1836V60.2324H38.7891V62.4941C39.2617 62.3457 39.7188 62.1973 40.1602 62.0488C40.1602 62.4238 40.168 62.7285 40.1836 62.9629C39.7305 63.1074 39.2656 63.2578 38.7891 63.4141V67.123C38.7891 67.9668 38.4102 68.3965 37.6523 68.4121C37.3398 68.4199 36.9531 68.4199 36.4922 68.4121C36.4453 68.084 36.3945 67.752 36.3398 67.416C36.8008 67.4629 37.1484 67.4863 37.3828 67.4863C37.7188 67.4863 37.8867 67.2949 37.8867 66.9121V63.707C37.3672 63.875 36.8359 64.0488 36.293 64.2285L36.1758 63.2559ZM46.2305 62.6465H43.0781C43.3438 63.7871 43.8535 64.7598 44.6074 65.5645C45.3848 64.748 45.9258 63.7754 46.2305 62.6465Z" fill="black" fill-opacity="0.85"/>
<path d="M34.8151 14.381L26.6807 22.5714H26.4958L23.7227 19.7143V19.5238L32.5966 10.381C32.7815 10.1905 32.5966 10 32.4118 10H15.7731C14.2941 10 13 11.3333 13 12.8571V35.1429C13 36.6667 14.2941 38 15.7731 38H32.2269C33.7059 38 35 36.6667 35 35.1429V14.5714C35 14.381 34.8151 14.1905 34.8151 14.381ZM22.7983 20.8571C22.7983 20.6667 22.9832 20.6667 23.1681 20.6667L25.5714 23.1429C25.7563 23.3333 25.5714 23.5238 25.3866 23.5238L22.6134 23.9048C22.4286 23.9048 22.4286 23.9048 22.4286 23.7143L22.7983 20.8571ZM23.9076 33.619H16.5126C15.958 33.619 15.5882 33.2381 15.5882 32.6667C15.5882 32.0952 15.958 31.7143 16.5126 31.7143H23.9076C24.4622 31.7143 24.8319 32.0952 24.8319 32.6667C24.8319 33.0476 24.2773 33.619 23.9076 33.619ZM30.3782 29.0476H16.3277C15.7731 29.0476 15.4034 28.6667 15.4034 28.0952C15.4034 27.5238 15.7731 27.1429 16.3277 27.1429H30.3782C30.9328 27.1429 31.3025 27.5238 31.3025 28.0952C31.3025 28.6667 30.9328 29.0476 30.3782 29.0476Z" fill="white" fill-opacity="0.85"/>
<defs>
<linearGradient id="paint0_linear_22_312" x1="24" y1="48" x2="24" y2="1.78814e-07" gradientUnits="userSpaceOnUse">
<stop stop-color="#7459FE"/>
<stop offset="1" stop-color="#76C5FF"/>
</linearGradient>
<linearGradient id="paint1_linear_22_312" x1="24" y1="48" x2="24" y2="1.78814e-07" gradientUnits="userSpaceOnUse">
<stop stop-color="#1F8BD7"/>
<stop offset="1" stop-color="#45EFAD"/>
</linearGradient>
</defs>
</svg>
