<svg width="48" height="69" viewBox="0 0 48 69" fill="none" xmlns="http://www.w3.org/2000/svg">
<rect width="48" height="48" rx="16" fill="url(#paint0_linear_22_316)"/>
<mask id="mask0_22_316" style="mask-type:alpha" maskUnits="userSpaceOnUse" x="0" y="0" width="48" height="48">
<rect width="48" height="48" rx="16" fill="url(#paint1_linear_22_316)"/>
</mask>
<g mask="url(#mask0_22_316)">
<circle cx="3.5" cy="50.5" r="17.5" fill="white" fill-opacity="0.2"/>
<circle cx="41" cy="4" r="10" fill="white" fill-opacity="0.2"/>
</g>
<path d="M0.222656 67.6387C3.65234 66.8184 5.40234 64.9238 5.47266 61.9551C5.50391 61.0879 5.51562 60.4316 5.50781 59.9863H6.46875C6.45703 60.6035 6.43945 61.2285 6.41602 61.8613C7.06836 64.9043 8.875 66.7637 11.8359 67.4395C11.6484 67.6895 11.4297 68.0098 11.1797 68.4004C8.57031 67.5488 6.87891 65.9863 6.10547 63.7129C5.64062 66.0762 3.87109 67.6855 0.796875 68.541C0.570312 68.1348 0.378906 67.834 0.222656 67.6387ZM0.714844 58.6855H5.87695C5.59961 58.1895 5.33984 57.7715 5.09766 57.4316L5.94141 56.9512C6.16016 57.2637 6.45312 57.709 6.82031 58.2871L6.09961 58.6855H11.332V60.8066H10.3945V59.5527H1.65234V60.8066H0.714844V58.6855ZM1.32422 61.9902L1.99219 61.416C2.78125 62.2285 3.53516 63.0762 4.25391 63.959L3.51562 64.6152C2.89062 63.7871 2.16016 62.9121 1.32422 61.9902ZM7.69922 63.959C8.55078 63.1543 9.32031 62.3027 10.0078 61.4043L10.7695 62.002C9.97266 62.9473 9.16406 63.7988 8.34375 64.5566L7.69922 63.959ZM17.2617 68.4941H16.3711V62.5527H22.957V67.0762C22.957 67.9434 22.5625 68.3848 21.7734 68.4004C21.2578 68.4082 20.5938 68.4082 19.7812 68.4004C19.7422 68.1504 19.6836 67.8496 19.6055 67.498C20.3477 67.5449 20.9531 67.5684 21.4219 67.5684C21.8516 67.5684 22.0664 67.3809 22.0664 67.0059V66.373H17.2617V68.4941ZM15.6094 61.0996H19.1953V60.291H16.2422V59.5527H19.1953V58.7676H15.9141V58.0293H19.1953V56.9746H20.0859V58.0293H23.6016V58.7676H20.0859V59.5527H23.2734V60.291H20.0859V61.0996H23.8477V61.8379H15.6094V61.0996ZM13.7461 57.0801H14.5781V59.4648L15.0234 59.1426C15.4219 59.6113 15.7773 60.0449 16.0898 60.4434L15.4336 60.9238C15.1914 60.5684 14.9062 60.1758 14.5781 59.7461V68.5293H13.7461V57.0801ZM22.0664 63.3027H17.2617V64.1113H22.0664V63.3027ZM17.2617 65.6465H22.0664V64.8379H17.2617V65.6465ZM12.5977 59.752L13.3477 59.8457C13.2617 60.791 13.1211 61.7949 12.9258 62.8574C12.7461 62.8105 12.4922 62.7559 12.1641 62.6934C12.3359 61.9277 12.4805 60.9473 12.5977 59.752ZM33.5625 60.1738C34.2188 61.0566 34.8906 62.0527 35.5781 63.1621C35.3047 63.3184 35.0156 63.4941 34.7109 63.6895C34.5156 63.3574 34.3281 63.0391 34.1484 62.7344C33.7852 62.7578 33.4102 62.7793 33.0234 62.7988V66.7715C33.0234 67.248 33.1992 67.4863 33.5508 67.4863H34.125C34.5078 67.4863 34.7266 67.291 34.7812 66.9004C34.8438 66.4316 34.8828 65.9238 34.8984 65.377C35.1562 65.4863 35.4688 65.5996 35.8359 65.7168C35.7734 66.3965 35.707 66.9238 35.6367 67.2988C35.5273 67.9785 35.1172 68.3184 34.4062 68.3184H33.3984C32.5469 68.3184 32.1211 67.8301 32.1211 66.8535V62.8516C31.6836 62.875 31.2305 62.9023 30.7617 62.9336C30.6992 64.6328 30.4805 65.8184 30.1055 66.4902C29.6602 67.3496 28.8281 68.0605 27.6094 68.623C27.4375 68.3809 27.2383 68.1191 27.0117 67.8379C28.1445 67.377 28.9023 66.7715 29.2852 66.0215C29.6367 65.4238 29.8262 64.4141 29.8535 62.9922C29.6934 63.0039 29.5312 63.0137 29.3672 63.0215C29.0312 63.0527 28.7188 63.1035 28.4297 63.1738L28.0312 62.2598C28.3672 62.1191 28.6367 61.9316 28.8398 61.6973C29.4258 60.998 29.9766 60.2363 30.4922 59.4121H27.9375V58.5801H31.6758C31.3828 58.1309 31.1055 57.7324 30.8438 57.3848L31.6172 56.9043C31.9141 57.2715 32.2461 57.709 32.6133 58.2168L32.0566 58.5801H35.625V59.4121H30.8672L31.5117 59.6934C30.8633 60.5684 30.2266 61.373 29.6016 62.1074C31.0742 62.0566 32.4277 62.0039 33.6621 61.9492C33.3652 61.4727 33.082 61.0371 32.8125 60.6426L33.5625 60.1738ZM25.6758 64.123C26.3008 64.0371 27.1016 63.9199 28.0781 63.7715C28.0312 64.084 27.9922 64.373 27.9609 64.6387C26.9844 64.7715 25.8672 64.9395 24.6094 65.1426L24.4219 64.2988C24.9102 63.7988 25.4902 62.9844 26.1621 61.8555C25.3496 61.9102 24.7656 61.9512 24.4102 61.9785L24.1875 61.1816C24.875 60.2754 25.6172 58.8926 26.4141 57.0332L27.3047 57.3848C26.5469 58.8691 25.8555 60.1113 25.2305 61.1113C25.7422 61.1035 26.2031 61.0918 26.6133 61.0762C26.8477 60.6582 27.0938 60.2051 27.3516 59.7168L28.2305 60.1035C27.3398 61.6582 26.4883 62.998 25.6758 64.123ZM24.1523 66.584C25.4492 66.334 26.7891 66.0527 28.1719 65.7402C28.1406 66.1465 28.125 66.4277 28.125 66.584C26.7109 66.8965 25.4766 67.1934 24.4219 67.4746L24.1523 66.584ZM39.9375 61.0879H43.3477V57.0566H44.3555V61.0879H47.7891V61.9316H44.3555V68.541H43.3477V61.9316H39.9375V61.0879ZM41.0156 65.3066C41.0391 65.7129 41.0664 66.0527 41.0977 66.3262C39.8477 67.1074 38.8164 67.7871 38.0039 68.3652L37.4414 67.5684C37.7148 67.334 37.8516 66.9785 37.8516 66.502V61.8613H36.1875V61.0176H38.7891V66.7129C39.4688 66.2988 40.2109 65.8301 41.0156 65.3066ZM37.3828 57.209C38.2344 58.084 38.8516 58.7324 39.2344 59.1543L38.4141 59.8457C37.9219 59.1973 37.3398 58.5254 36.668 57.8301L37.3828 57.209Z" fill="black" fill-opacity="0.85"/>
<path d="M25 23H38C38 15.4854 32.2375 9.36802 25 9V23Z" fill="white" fill-opacity="0.85"/>
<path d="M23.5342 24.8346C23.3548 24.8341 23.183 24.7627 23.0562 24.6361C22.9294 24.5094 22.8579 24.3378 22.8574 24.1587V10C15.6993 10.3544 10 16.2449 10 23.4829C10 30.9481 16.0596 37 23.5342 37C30.5519 37 36.3208 31.6649 37 24.8346H23.5342Z" fill="white" fill-opacity="0.85"/>
<defs>
<linearGradient id="paint0_linear_22_316" x1="24" y1="48" x2="24" y2="1.78814e-07" gradientUnits="userSpaceOnUse">
<stop stop-color="#B75ED8"/>
<stop offset="1" stop-color="#F4B7E2"/>
</linearGradient>
<linearGradient id="paint1_linear_22_316" x1="24" y1="48" x2="24" y2="1.78814e-07" gradientUnits="userSpaceOnUse">
<stop stop-color="#1F8BD7"/>
<stop offset="1" stop-color="#45EFAD"/>
</linearGradient>
</defs>
</svg>
