<svg width="48" height="69" viewBox="0 0 48 69" fill="none" xmlns="http://www.w3.org/2000/svg">
<rect width="48" height="48" rx="16" fill="url(#paint0_linear_22_308)"/>
<mask id="mask0_22_308" style="mask-type:alpha" maskUnits="userSpaceOnUse" x="0" y="0" width="48" height="48">
<rect width="48" height="48" rx="16" fill="url(#paint1_linear_22_308)"/>
</mask>
<g mask="url(#mask0_22_308)">
<circle cx="3.5" cy="50.5" r="17.5" fill="white" fill-opacity="0.2"/>
<circle cx="41" cy="4" r="10" fill="white" fill-opacity="0.2"/>
</g>
<path d="M0.222656 67.6387C3.65234 66.8184 5.40234 64.9238 5.47266 61.9551C5.50391 61.0879 5.51562 60.4316 5.50781 59.9863H6.46875C6.45703 60.6035 6.43945 61.2285 6.41602 61.8613C7.06836 64.9043 8.875 66.7637 11.8359 67.4395C11.6484 67.6895 11.4297 68.0098 11.1797 68.4004C8.57031 67.5488 6.87891 65.9863 6.10547 63.7129C5.64062 66.0762 3.87109 67.6855 0.796875 68.541C0.570312 68.1348 0.378906 67.834 0.222656 67.6387ZM0.714844 58.6855H5.87695C5.59961 58.1895 5.33984 57.7715 5.09766 57.4316L5.94141 56.9512C6.16016 57.2637 6.45312 57.709 6.82031 58.2871L6.09961 58.6855H11.332V60.8066H10.3945V59.5527H1.65234V60.8066H0.714844V58.6855ZM1.32422 61.9902L1.99219 61.416C2.78125 62.2285 3.53516 63.0762 4.25391 63.959L3.51562 64.6152C2.89062 63.7871 2.16016 62.9121 1.32422 61.9902ZM7.69922 63.959C8.55078 63.1543 9.32031 62.3027 10.0078 61.4043L10.7695 62.002C9.97266 62.9473 9.16406 63.7988 8.34375 64.5566L7.69922 63.959ZM17.2617 68.4941H16.3711V62.5527H22.957V67.0762C22.957 67.9434 22.5625 68.3848 21.7734 68.4004C21.2578 68.4082 20.5938 68.4082 19.7812 68.4004C19.7422 68.1504 19.6836 67.8496 19.6055 67.498C20.3477 67.5449 20.9531 67.5684 21.4219 67.5684C21.8516 67.5684 22.0664 67.3809 22.0664 67.0059V66.373H17.2617V68.4941ZM15.6094 61.0996H19.1953V60.291H16.2422V59.5527H19.1953V58.7676H15.9141V58.0293H19.1953V56.9746H20.0859V58.0293H23.6016V58.7676H20.0859V59.5527H23.2734V60.291H20.0859V61.0996H23.8477V61.8379H15.6094V61.0996ZM13.7461 57.0801H14.5781V59.4648L15.0234 59.1426C15.4219 59.6113 15.7773 60.0449 16.0898 60.4434L15.4336 60.9238C15.1914 60.5684 14.9062 60.1758 14.5781 59.7461V68.5293H13.7461V57.0801ZM22.0664 63.3027H17.2617V64.1113H22.0664V63.3027ZM17.2617 65.6465H22.0664V64.8379H17.2617V65.6465ZM12.5977 59.752L13.3477 59.8457C13.2617 60.791 13.1211 61.7949 12.9258 62.8574C12.7461 62.8105 12.4922 62.7559 12.1641 62.6934C12.3359 61.9277 12.4805 60.9473 12.5977 59.752ZM25.6875 60.8184H29.543V59.5527H30.457V60.8184H34.3242V66.5605H33.457V66.0098H30.457V68.5645H29.543V66.0098H26.5547V66.5605H25.6875V60.8184ZM24.6445 58.3691H29.7656C29.5664 58.0449 29.3398 57.7051 29.0859 57.3496L29.8945 56.8691C30.2148 57.2754 30.4961 57.6621 30.7383 58.0293L30.1875 58.3691H35.3672V60.5605H34.4531V59.2129H25.5586V60.5605H24.6445V58.3691ZM30.457 65.1895H33.457V63.8066H30.457V65.1895ZM26.5547 65.1895H29.543V63.8066H26.5547V65.1895ZM33.457 61.6387H30.457V63.0098H33.457V61.6387ZM26.5547 63.0098H29.543V61.6387H26.5547V63.0098ZM39.8672 65.5762C41.4219 64.7715 42.7266 63.8184 43.7812 62.7168C43.0156 62.7949 42.3047 62.8691 41.6484 62.9395C41.3594 62.9707 41.0898 63.0254 40.8398 63.1035L40.4062 62.248C40.7266 62.0762 40.9766 61.873 41.1562 61.6387C41.6484 61.0371 42.1289 60.3496 42.5977 59.5762H40.3711V58.7324H43.9688C43.6484 58.2559 43.3516 57.8301 43.0781 57.4551L43.8398 56.9746C44.1367 57.3418 44.4805 57.791 44.8711 58.3223L44.25 58.7324H47.8359V59.5762H43.6875C43.1172 60.4434 42.5273 61.2598 41.918 62.0254C42.7773 61.9785 43.6484 61.9277 44.5312 61.873C44.9766 61.3184 45.3672 60.7285 45.7031 60.1035L46.5586 60.5605C45.2227 62.9043 43.2148 64.8145 40.5352 66.291C40.3164 66.0488 40.0938 65.8105 39.8672 65.5762ZM36.1641 64.4629C37 63.1348 37.5859 61.7207 37.9219 60.2207H36.2461V59.4004H37.9336V57.0684H38.8125V59.4004H40.1484V60.2207H38.8125V62.2832L39.1758 61.8965C39.6758 62.3184 40.1406 62.7402 40.5703 63.1621L39.9727 63.7598C39.5898 63.3457 39.2031 62.959 38.8125 62.5996V68.623H37.9336V62.4121C37.5352 63.6934 37.0703 64.7207 36.5391 65.4941C36.4375 65.1582 36.3125 64.8145 36.1641 64.4629ZM40.2188 67.8848C42.8906 66.7598 45.0898 64.9238 46.8164 62.377L47.6133 62.916C46.9414 63.8848 46.207 64.7559 45.4102 65.5293C46.3086 66.2637 47.1523 66.9824 47.9414 67.6855L47.2266 68.4473C46.4922 67.7207 45.6719 66.9473 44.7656 66.127C43.5859 67.166 42.2773 68.0098 40.8398 68.6582C40.6914 68.4473 40.4844 68.1895 40.2188 67.8848Z" fill="black" fill-opacity="0.85"/>
<path d="M16.2171 15.2172H31.8263V16.9514H16.2171V15.2172ZM37.863 31.9563C37.9638 31.8405 38.0569 31.6955 38.1425 31.5269C38.228 31.3592 38.2017 31.2062 38.068 31.0718L37.8261 30.818C37.6995 30.6835 37.6175 30.6092 37.584 30.5901C37.4124 30.4747 37.2525 30.4559 37.1 30.5417C36.9471 30.6237 36.7945 30.7432 36.6421 30.8963C36.2508 31.2845 35.8676 31.6616 35.4842 32.0348C35.1046 32.4043 34.7435 32.7591 34.4046 33.0952C34.2856 33.2144 34.1514 33.2856 34.01 33.3114C33.8648 33.3336 33.7493 33.2892 33.6637 33.1694L33.4253 32.9196C33.3139 32.7997 33.1982 32.6731 33.0792 32.539L32.7368 32.1467C32.6249 32.0197 32.547 31.93 32.4944 31.882C32.3941 31.796 32.2786 31.7435 32.1522 31.7175C32.0256 31.6912 31.8915 31.7361 31.7577 31.8558L31.6311 31.9713C31.5603 32.0271 31.4934 32.0944 31.4261 32.173C31.3592 32.2477 31.2924 32.3147 31.2216 32.3744L31.095 32.4863C30.8418 32.7591 30.8753 33.0688 31.1993 33.423C31.2995 33.5429 31.4337 33.6887 31.6048 33.8676C31.7725 34.0428 31.9512 34.2332 32.137 34.435C32.3267 34.6364 32.513 34.8344 32.6994 35.0287C32.8852 35.2224 33.0457 35.3793 33.1833 35.4953C33.3173 35.633 33.5036 35.693 33.7418 35.6855C33.98 35.6782 34.1589 35.6071 34.2742 35.4726C34.5121 35.2524 34.7845 34.9874 35.0898 34.6738C35.3946 34.364 35.7151 34.0466 36.0425 33.7257C36.3736 33.4085 36.6976 33.0911 37.0105 32.7776C37.3234 32.4678 37.6101 32.1914 37.863 31.9563ZM34.4043 26.8762C35.1678 26.8762 35.8863 27.0215 36.5639 27.3166C37.2451 27.6116 37.8372 28.0143 38.3475 28.5185C38.8533 29.0226 39.2592 29.6162 39.5534 30.2879C39.8516 30.9634 40 31.68 40 32.438C40 33.2144 39.8515 33.9387 39.5534 34.6107C39.2592 35.2859 38.8534 35.8757 38.3475 36.3837C37.8372 36.8875 37.2451 37.2828 36.5639 37.5705C35.8863 37.8584 35.1678 38 34.4043 38C33.6227 38 32.8929 37.8584 32.2154 37.5705C31.538 37.2828 30.9422 36.8875 30.4361 36.3837C29.9258 35.8757 29.5242 35.2859 29.226 34.6107C28.9278 33.9387 28.7791 33.2144 28.7791 32.438C28.7791 31.6799 28.9279 30.9634 29.226 30.2879C29.5242 29.6162 29.9258 29.0226 30.4361 28.5185C30.9422 28.0143 31.538 27.6116 32.2154 27.3166C32.8929 27.0215 33.6227 26.8762 34.4043 26.8762ZM16.2171 18.7H31.8263V20.4339H16.2171V18.7ZM14.4734 13.4688H16.3015H31.1234H33.5701V22.1825H14.4734V13.4688ZM11 34.4919C11 35.3799 11.8015 36.0993 12.7437 36.0993H28.725C28.0454 35.0441 27.6504 33.7873 27.6504 32.4381C27.6504 28.7069 30.6682 25.681 34.3893 25.681C35.332 25.681 36.229 25.8755 37.0435 26.2258V22.1825H35.2995V11.7346V10H12.7437V11.7346V22.1825H11V34.4919Z" fill="white" fill-opacity="0.85"/>
<defs>
<linearGradient id="paint0_linear_22_308" x1="24" y1="48" x2="24" y2="1.78814e-07" gradientUnits="userSpaceOnUse">
<stop stop-color="#1F8BD7"/>
<stop offset="1" stop-color="#45EFAD"/>
</linearGradient>
<linearGradient id="paint1_linear_22_308" x1="24" y1="48" x2="24" y2="1.78814e-07" gradientUnits="userSpaceOnUse">
<stop stop-color="#1F8BD7"/>
<stop offset="1" stop-color="#45EFAD"/>
</linearGradient>
</defs>
</svg>
