<svg width="48" height="69" viewBox="0 0 48 69" fill="none" xmlns="http://www.w3.org/2000/svg">
<rect width="48" height="48" rx="16" fill="url(#paint0_linear_22_296)"/>
<mask id="mask0_22_296" style="mask-type:alpha" maskUnits="userSpaceOnUse" x="0" y="0" width="48" height="48">
<rect width="48" height="48" rx="16" fill="url(#paint1_linear_22_296)"/>
</mask>
<g mask="url(#mask0_22_296)">
<circle cx="3.5" cy="50.5" r="17.5" fill="white" fill-opacity="0.2"/>
<circle cx="41" cy="4" r="10" fill="white" fill-opacity="0.2"/>
</g>
<path d="M2.20312 61.8379C2.20312 63.8223 2.11719 65.1855 1.94531 65.9277C1.75781 66.834 1.36719 67.7051 0.773438 68.541C0.546875 68.252 0.324219 67.9902 0.105469 67.7559C0.597656 67.0059 0.921875 66.252 1.07812 65.4941C1.20312 64.8379 1.26562 63.6934 1.26562 62.0605V57.5137H11.2148V66.8652C11.2148 67.873 10.7305 68.3848 9.76172 68.4004C9.20703 68.4082 8.58984 68.4004 7.91016 68.377C7.87891 68.1426 7.81641 67.8262 7.72266 67.4277C8.48047 67.4746 9.0625 67.498 9.46875 67.498C10.0234 67.498 10.3008 67.2363 10.3008 66.7129V58.3574H2.20312V61.8379ZM3.72656 63.4434H8.74219V66.6074H4.61719V67.3574H3.72656V63.4434ZM2.76562 61.6738H5.77734V60.4902H3.30469V59.6934H5.77734V58.6621H6.69141V59.6934H9.16406V60.4902H6.69141V61.6738H9.71484V62.4707H2.76562V61.6738ZM7.85156 65.8105V64.2402H4.61719V65.8105H7.85156ZM15.8438 59.1777H18.1699C18.1895 58.4277 18.1992 57.7285 18.1992 57.0801H19.1836C19.1758 57.709 19.1602 58.4082 19.1367 59.1777H23.1094C23.0156 61.4746 22.9258 63.1816 22.8398 64.2988C22.7305 65.6348 22.1289 66.3027 21.0352 66.3027C20.4648 66.3027 19.8477 66.2871 19.1836 66.2559C19.1367 65.9355 19.0781 65.584 19.0078 65.2012C19.7656 65.2793 20.3555 65.3184 20.7773 65.3184C21.4492 65.3184 21.8203 64.9395 21.8906 64.1816C21.9844 63.0957 22.0586 61.7246 22.1133 60.0684H19.1074C19.0488 63.1582 17.957 65.3066 15.832 66.5137C15.6445 66.2793 15.418 66.0215 15.1523 65.7402C17.0742 64.6699 18.0723 62.7793 18.1465 60.0684H15.8438V59.1777ZM17.4551 67.2871L20.2969 67.3223L23.8359 67.2051C23.7031 67.5254 23.5781 67.8379 23.4609 68.1426L20.168 68.1895L17.4316 68.1602C15.8652 68.1328 14.7773 67.6699 14.168 66.7715C13.6914 67.1855 13.1992 67.6973 12.6914 68.3066L12.1875 67.3105C12.8242 66.7598 13.3438 66.3125 13.7461 65.9688V61.9785H12.2461V61.123H14.6836V66.1445C15.2617 66.8711 16.1855 67.252 17.4551 67.2871ZM13.4883 57.127C13.9648 57.7051 14.5039 58.4043 15.1055 59.2246C14.8242 59.3887 14.543 59.5723 14.2617 59.7754C13.7773 59.0254 13.2773 58.3105 12.7617 57.6309L13.4883 57.127ZM28.6523 63.6426H34.1719V62.5879H28.9336V61.8613H34.1719V60.8301H28.9102V60.2852C28.7109 60.5195 28.5078 60.748 28.3008 60.9707C28.1992 60.7832 28.0273 60.5605 27.7852 60.3027C28.7617 59.2715 29.5625 58.1582 30.1875 56.9629L31.0547 57.1973C30.8594 57.541 30.6562 57.877 30.4453 58.2051H34.043V58.9902C33.707 59.3965 33.4023 59.7598 33.1289 60.0801H35.0156V64.6973H34.1719V64.3926H28.6523V63.6426ZM28.0898 63.4434C28.2617 64.7324 27.9062 65.4551 27.0234 65.6113C26.7422 65.666 26.3711 65.6699 25.9102 65.623C25.8477 65.3027 25.7617 64.9941 25.6523 64.6973C26.0273 64.791 26.3789 64.8223 26.707 64.791C27.2148 64.7441 27.3867 64.2832 27.2227 63.4082C27.1289 62.7754 26.793 62.0801 26.2148 61.3223C26.7227 60.0801 27.1016 59.0879 27.3516 58.3457H25.6055V68.5879H24.75V57.5254H28.2305V58.3457C27.8633 59.3223 27.4844 60.2676 27.0938 61.1816C27.6719 61.9707 28.0039 62.7246 28.0898 63.4434ZM29.4023 64.9199H30.2227V66.7246C30.2227 67.2012 30.418 67.4395 30.8086 67.4395H32.0977C32.6602 67.4395 32.9727 67.2598 33.0352 66.9004C33.0898 66.627 33.1328 66.248 33.1641 65.7637C33.4531 65.8887 33.7344 65.998 34.0078 66.0918C33.9297 66.5996 33.8594 66.9707 33.7969 67.2051C33.6484 67.877 33.1836 68.209 32.4023 68.2012H30.6094C29.8047 68.2012 29.4023 67.7285 29.4023 66.7832V64.9199ZM32.9531 58.9551H29.9414C29.6641 59.3418 29.377 59.7168 29.0801 60.0801H32.0918C32.3887 59.6934 32.6758 59.3184 32.9531 58.9551ZM28.1953 65.166L28.9688 65.4355C28.7031 66.2871 28.3633 67.0723 27.9492 67.791C27.7617 67.6895 27.5078 67.5605 27.1875 67.4043C27.6016 66.7559 27.9375 66.0098 28.1953 65.166ZM33.8555 65.3887L34.4766 64.9551C34.9531 65.5098 35.4219 66.1191 35.8828 66.7832L35.1562 67.2637C34.7109 66.5684 34.2773 65.9434 33.8555 65.3887ZM30.7266 64.9316L31.3359 64.4746C31.8672 65.0449 32.25 65.502 32.4844 65.8457L31.793 66.373C31.5195 65.9199 31.1641 65.4395 30.7266 64.9316ZM37.2891 61.4746H41.5664V60.5605H38.25V60.8887H37.4062V58.0527H41.5664V57.0684H42.4336V58.0527H46.5938V60.8887H45.75V60.5605H42.4336V61.4746H46.7109V64.498H45.8672V64.0527H42.4336V64.7793H41.5664V64.0527H38.1328V64.498H37.2891V61.4746ZM39.0234 65.0371H39.8906V66.6895C39.8906 67.166 40.1602 67.4043 40.6992 67.4043H43.1602C43.7461 67.4043 44.0781 67.1738 44.1562 66.7129C44.2188 66.4473 44.2891 66.0332 44.3672 65.4707C44.6328 65.5801 44.9414 65.6973 45.293 65.8223C45.1836 66.3691 45.082 66.8066 44.9883 67.1348C44.793 67.8613 44.2344 68.2246 43.3125 68.2246H40.4766C39.5078 68.2246 39.0234 67.7285 39.0234 66.7363V65.0371ZM45.8672 62.2246H42.4336V63.3027H45.8672V62.2246ZM38.1328 63.3027H41.5664V62.2246H38.1328V63.3027ZM45.75 58.8027H42.4336V59.8105H45.75V58.8027ZM38.25 59.8105H41.5664V58.8027H38.25V59.8105ZM37.3359 65.1543L38.2031 65.4473C37.875 66.4316 37.4961 67.3027 37.0664 68.0605C36.8633 67.9512 36.5859 67.8145 36.2344 67.6504C36.7031 66.8926 37.0703 66.0605 37.3359 65.1543ZM45.6094 65.4941L46.2891 65.0137C46.8438 65.6934 47.3633 66.3652 47.8477 67.0293L47.0508 67.5918C46.582 66.8574 46.1016 66.1582 45.6094 65.4941ZM40.7109 65.2715L41.2148 64.6152C41.9805 65.0684 42.625 65.459 43.1484 65.7871L42.5742 66.5371C42.0039 66.123 41.3828 65.7012 40.7109 65.2715Z" fill="black" fill-opacity="0.85"/>
<path d="M35 24C35 29.1543 31.3333 33.821 24 38C16.6667 33.821 13 29.1543 13 24C13 23.706 13.0068 23.4143 13.0214 23.125L13 12.625L24 10L35 12.625V23.125C34.9932 23.4143 35 23.706 35 24ZM23.023 17L23.4573 26.149H24.9353L25.3696 17H23.023ZM24.1873 27.1197C23.8048 27.1197 23.4923 27.2457 23.2486 27.4965C22.9711 27.7485 22.8492 28.0717 22.8492 28.4672C22.8492 28.8638 22.9711 29.1858 23.2486 29.4378C23.4923 29.6898 23.8048 29.8333 24.1873 29.8333C24.5709 29.8333 24.8834 29.7073 25.1609 29.4553C25.4046 29.2045 25.5434 28.8627 25.5434 28.4672C25.5434 28.0717 25.4046 27.7485 25.1609 27.4965C24.8962 27.2446 24.5469 27.1095 24.1873 27.1197Z" fill="white" fill-opacity="0.85"/>
<defs>
<linearGradient id="paint0_linear_22_296" x1="24" y1="48" x2="24" y2="1.78814e-07" gradientUnits="userSpaceOnUse">
<stop stop-color="#FC7104"/>
<stop offset="1" stop-color="#FEC702"/>
</linearGradient>
<linearGradient id="paint1_linear_22_296" x1="24" y1="48" x2="24" y2="1.78814e-07" gradientUnits="userSpaceOnUse">
<stop stop-color="#1F8BD7"/>
<stop offset="1" stop-color="#45EFAD"/>
</linearGradient>
</defs>
</svg>
