<svg width="48" height="69" viewBox="0 0 48 69" fill="none" xmlns="http://www.w3.org/2000/svg">
<rect width="48" height="48" rx="16" fill="url(#paint0_linear_22_292)"/>
<mask id="mask0_22_292" style="mask-type:alpha" maskUnits="userSpaceOnUse" x="0" y="0" width="48" height="48">
<rect width="48" height="48" rx="16" fill="url(#paint1_linear_22_292)"/>
</mask>
<g mask="url(#mask0_22_292)">
<circle cx="3.5" cy="50.5" r="17.5" fill="white" fill-opacity="0.2"/>
<circle cx="41" cy="4" r="10" fill="white" fill-opacity="0.2"/>
</g>
<path d="M3.08203 65.0488C4.11719 65.5098 5.23438 66.0234 6.43359 66.5898L9.08203 64.2988H2.51953V63.4316L3.08789 61.9785H0.292969V61.0879H3.43945L4.07227 59.4824H1.00781V58.5918H4.42383L5.03906 57.0332H6.10547L5.49023 58.5918H11.0391V59.4824H5.13867L4.50586 61.0879H11.7891V61.9785H4.1543L3.58594 63.4199H10.418V64.334L7.30078 67C7.82422 67.25 8.36328 67.5098 8.91797 67.7793L8.34375 68.6699C6.38281 67.6387 4.46484 66.6934 2.58984 65.834L3.08203 65.0488ZM12.2227 66.9121H15.9844V57.2324H16.9688V66.9121H19.0195V57.2324H20.0039V66.9121H23.8008V67.7793H12.2227V66.9121ZM13.582 59.5293C14.2227 61.0371 14.8438 62.6387 15.4453 64.334L14.4844 64.7676C13.9609 63.1191 13.375 61.498 12.7266 59.9043L13.582 59.5293ZM20.4258 64.4395C21.207 62.7832 21.8633 61.1816 22.3945 59.6348L23.3438 60.0098C22.6172 61.877 21.9258 63.4824 21.2695 64.8262L20.4258 64.4395ZM24.1523 64.416C24.8945 63.2285 25.4609 61.8418 25.8516 60.2559H24.2695V59.4824H25.957V57.127H26.7773V59.4824H28.3477V60.2559H26.7773V61.9902L27.293 61.6152C27.7148 62.1309 28.0859 62.6152 28.4062 63.0684L27.7617 63.5723C27.4883 63.1113 27.1602 62.6309 26.7773 62.1309V68.5762H25.957V62.0371C25.5586 63.4277 25.082 64.5645 24.5273 65.4473C24.4336 65.1035 24.3086 64.7598 24.1523 64.416ZM28.0547 67.2285H32.5195C32.9414 66.0879 33.3789 64.6348 33.832 62.8691L34.7812 63.1387C34.2578 64.7871 33.7969 66.1504 33.3984 67.2285H35.6016V68.0605H28.0547V67.2285ZM32.5078 57.2207L32.3555 57.4551C33.1836 58.9551 34.3633 60.1582 35.8945 61.0645C35.6836 61.2988 35.4688 61.5645 35.25 61.8613C33.7266 60.7832 32.5898 59.5762 31.8398 58.2402C30.9102 59.748 29.8438 61.002 28.6406 62.002C28.4531 61.752 28.2305 61.5059 27.9727 61.2637C29.4258 60.1621 30.5664 58.8145 31.3945 57.2207H32.5078ZM29.4375 61.4277H34.2422V62.248H29.4375V61.4277ZM30.8555 62.8809L31.6758 62.6816C31.9805 63.7598 32.2344 64.8379 32.4375 65.916L31.5586 66.1387C31.3633 64.9121 31.1289 63.8262 30.8555 62.8809ZM28.6289 63.3496L29.4375 63.1152C29.7344 63.9824 30.0391 65.041 30.3516 66.291L29.4844 66.5488C29.2266 65.3848 28.9414 64.3184 28.6289 63.3496ZM37.6406 63.7129C38.0156 63.9082 38.3242 64.0527 38.5664 64.1465C38.043 66.0996 37.6641 67.541 37.4297 68.4707L36.4688 68.0254C36.9297 66.7207 37.3203 65.2832 37.6406 63.7129ZM37.1953 57.3145C37.6719 57.7129 38.2656 58.252 38.9766 58.9316C38.7188 59.1816 38.4844 59.416 38.2734 59.6348C37.7031 59.002 37.1406 58.4238 36.5859 57.9004L37.1953 57.3145ZM36.668 60.3262C37.3242 60.8574 37.9453 61.3848 38.5312 61.9082C38.3281 62.1191 38.1016 62.3652 37.8516 62.6465C37.1484 61.9512 36.5625 61.3926 36.0938 60.9707L36.668 60.3262ZM46.4531 57.0918H47.3086V67.0645C47.3086 67.9629 46.875 68.4121 46.0078 68.4121C45.6328 68.4121 45.1875 68.4043 44.6719 68.3887C44.6406 68.0996 44.5859 67.7793 44.5078 67.4277C45.0078 67.4824 45.4336 67.5098 45.7852 67.5098C46.2305 67.5098 46.4531 67.2871 46.4531 66.8418V57.0918ZM45.4453 65.8105H44.625V58.041H45.4453V65.8105ZM39.1992 57.7363H43.6172V65.1426H42.7734V58.5566H40.043V65.1426H39.1992V57.7363ZM41.0273 59.5645H41.8828V62.4707C41.8828 63.6582 41.7734 64.6113 41.5547 65.3301C42.5703 66.1113 43.4531 66.8145 44.2031 67.4395L43.5703 68.1543C42.9453 67.5605 42.1719 66.8809 41.25 66.1152C40.7656 67.0762 39.8945 67.9238 38.6367 68.6582C38.4648 68.4082 38.2734 68.1582 38.0625 67.9082C39.2266 67.2363 40.0234 66.4902 40.4531 65.6699C40.8359 64.959 41.0273 63.9004 41.0273 62.4941V59.5645Z" fill="black" fill-opacity="0.85"/>
<path d="M14.9687 24.6893L15.9464 24.4756L19.9113 26.3721C20.1286 26.4789 20.373 26.4789 20.6174 26.4255C20.9705 26.3454 21.2964 26.1317 21.3778 25.8646L22.4913 20.2554L26.1575 26.559C26.3205 26.8261 26.7278 26.933 27.1352 26.8528C27.5697 26.7727 27.9227 26.4522 27.8956 26.1317L28.9275 20.9498L29.7966 21.3772C30.041 21.484 30.2854 21.5107 30.5298 21.4573L32.1593 21.1101C32.7839 25.6242 29.7694 29.8177 25.2342 30.7793C20.7532 31.6875 16.2723 29.0431 14.9687 24.6893ZM14.6972 23.4339C14.0182 18.8931 17.0327 14.6194 21.5951 13.6579C26.1575 12.6963 30.6928 15.394 31.942 19.8013L30.6656 20.0684L28.9547 19.2404C28.7646 19.1068 28.5202 19.0801 28.2758 19.1068C28.2215 19.1068 28.1943 19.1068 28.14 19.1335C27.9227 19.1602 27.7326 19.2671 27.5697 19.4273C27.4339 19.5342 27.3524 19.7211 27.3796 19.9081L26.6192 23.7811L22.953 17.5042C22.79 17.2371 22.3827 17.1302 21.9753 17.2104C21.6223 17.2905 21.2964 17.5042 21.2149 17.798L19.857 24.6893L16.7611 23.2202C16.5438 23.1134 16.2994 23.1134 16.055 23.1668L14.6972 23.4339ZM38.5141 34.3585C39.1387 34.9461 39.1658 35.9077 38.5684 36.522C37.9709 37.1364 36.9933 37.1631 36.3686 36.5755L31.6976 32.1415C31.5618 32.008 31.4532 31.8477 31.3717 31.6607C26.2933 35.7742 18.8251 35.2934 14.3441 30.5389C9.83601 25.7844 9.89032 18.439 14.4799 13.7647C19.0423 9.09037 26.5106 8.71642 31.5346 12.9367C36.5316 17.1302 37.3463 24.4489 33.3542 29.6307C33.5443 29.7109 33.7072 29.8177 33.843 29.9513L38.5141 34.3585ZM23.6319 31.6875C28.9547 31.5806 33.1641 27.2535 33.0826 22.0182C32.974 16.8097 28.5745 12.6429 23.2517 12.7497C17.9289 12.8565 13.6923 17.1836 13.801 22.4189C13.8553 24.9297 14.9144 27.3336 16.7611 29.0698C18.6078 30.806 21.0791 31.7409 23.6319 31.6875Z" fill="white" fill-opacity="0.85"/>
<defs>
<linearGradient id="paint0_linear_22_292" x1="24" y1="48" x2="24" y2="1.78814e-07" gradientUnits="userSpaceOnUse">
<stop stop-color="#B75ED8"/>
<stop offset="1" stop-color="#F4B7E2"/>
</linearGradient>
<linearGradient id="paint1_linear_22_292" x1="24" y1="48" x2="24" y2="1.78814e-07" gradientUnits="userSpaceOnUse">
<stop stop-color="#1F8BD7"/>
<stop offset="1" stop-color="#45EFAD"/>
</linearGradient>
</defs>
</svg>
